#N canvas 280 153 719 655 12;
#X obj 52 280 noteout;
#X msg 95 227 69 100 1;
#X msg 24 227 73 100 1;
#X msg 95 248 69 0 1;
#X msg 24 248 73 0 1;
#X msg 270 290 args \$1;
#X obj 356 147 loadbang;
#X msg 240 472 step;
#X msg 278 472 line 0;
#X text 40 204 Dr. Note Test v 0.1;
#X obj 240 451 metro 500;
#X obj 240 434 tgl 15 0 empty empty empty 17 7 0 10 #fcfcfc #000000
#000000 0 1;
#X obj 164 413 route list;
#X obj 220 434 bng 18 250 50 0 empty empty empty 17 7 0 10 #fcfcfc
#000000 #000000;
#X text 314 410 Edit test sequence here;
#X obj 164 434 noteout;
#X obj 356 168 f \$1;
#X obj 164 371 text sequence \$0-doctor_note_test;
#X obj 375 272 loadbang;
#X obj 217 392 text define -k \$0-doctor_note_test;
#A set 73 100 \$1 \; 69 100 \$1 \; 69 0 \$1 \; 73 0 \$1 \; reset \;
;
#X msg 375 296 read doctor_note_test_sequence.txt;
#X text 179 295 v 0.6;
#X floatatom 122 102 5 0 0 0 - - - 0;
#X obj 102 102 bng 18 250 50 0 empty empty empty 17 7 0 10 #fcfcfc
#000000 #000000;
#X connect 1 0 0 0;
#X connect 2 0 0 0;
#X connect 3 0 0 0;
#X connect 4 0 0 0;
#X connect 5 0 17 0;
#X connect 6 0 8 0;
#X connect 6 0 16 0;
#X connect 7 0 17 0;
#X connect 8 0 17 0;
#X connect 10 0 7 0;
#X connect 11 0 10 0;
#X connect 12 0 15 0;
#X connect 12 1 13 0;
#X connect 13 0 11 0;
#X connect 13 0 8 0;
#X connect 16 0 5 0;
#X connect 16 0 22 0;
#X connect 17 0 12 0;
#X connect 18 0 20 0;
#X connect 20 0 19 0;
#X connect 23 0 11 0;
#X coords 0 -1 1 1 64 22 2 100 100;
