#N canvas 484 133 450 578 12;
#X obj 141 383 loadbang;
#X obj 141 404 f \$1;
#X listbox 108 467 12 0 0 0 - - - 0;
#X obj 108 487 unpack f f f;
#X obj 108 508 ctlout;
#X obj 100 404 inlet;
#X obj 108 425 pack f f f;
#X msg 108 446 \$1 \$2 \$3;
#X obj 203 404 f \$2;
#X obj 203 383 loadbang;
#X obj 268 335 loadbang;
#X symbolatom 268 383 10 0 0 0 - - - 0;
#X obj 268 359 symbol \$3_CC;
#X text 33 166 Creation Arguments:;
#X text 32 184 (\$0 -- unique local variable);
#X text 30 223 \$2 -- channel #;
#X text 31 203 \$1 -- CC #;
#X text 37 246 \$3 -- Label;
#X text 27 267 inlet -- CC value;
#X connect 0 0 1 0;
#X connect 1 0 6 1;
#X connect 2 0 3 0;
#X connect 3 0 4 0;
#X connect 3 1 4 1;
#X connect 3 2 4 2;
#X connect 5 0 6 0;
#X connect 6 0 7 0;
#X connect 7 0 2 0;
#X connect 8 0 6 2;
#X connect 9 0 8 0;
#X connect 10 0 12 0;
#X connect 12 0 11 0;
