#N canvas 484 133 450 273 12;
#X listbox 102 183 12 0 0 0 - - - 0;
#X obj 102 162 ctlout;
#X obj 102 55 loadbang;
#X symbolatom 102 102 15 0 0 0 - - - 0;
#X obj 102 79 symbol \$3_CC;
#X text 192 140 Creation Arguments:;
#X text 191 158 (\$0 -- unique local variable);
#X text 189 197 \$2 -- channel #;
#X text 190 177 \$1 -- CC #;
#X text 196 220 \$3 -- Label;
#X text 186 241 inlet -- CC value;
#X obj 105 122 hsl 128 15 0 127 0 0 empty empty empty -2 -8 1 10 #fcfcfc
#000000 #000000 0 1;
#X obj 102 141 pack f \$1 \$2;
#X connect 2 0 4 0;
#X connect 4 0 3 0;
#X connect 11 0 12 0;
#X connect 12 0 0 0;
#X connect 12 0 1 0;
#X coords 0 -1 1 1 137 39 2 100 100;
