#N canvas 531 547 454 320 12;
#X obj 37 131 noteout;
#X obj 37 68 r \$1-note;
#X obj 74 89 r \$1-velocity;
#X obj 176 45 f \$1;
#X obj 176 23 loadbang;
#X obj 37 23 r SEND_ALL_CHANNELS;
#X text 123 45 Channel;
#X obj 37 44 doctor_note_test \$1;
#X obj 37 110 pack f f \$1;
#X obj 171 68 r \$1-pitch;
#X text 28 158 Creation Arguments:;
#X text 27 176 (\$0 -- unique local variable);
#X text 26 195 \$1 -- LXR Voice Channel;
#X text 28 211 \$1-note will send midi note data \, \$1-pitch will
only send pitch/tuning data (customizable);
#X text 30 244 \$2 -- LXR port channel 1 (for 'global' cc sends);
#X floatatom 37 89 5 0 0 0 - - - 0;
#X text 34 260 \$3 -- cc coarse tune;
#X text 35 277 \$4 -- cc fine tune;
#X obj 171 89 LXR_fine_tune \$4 \$2;
#X obj 205 110 LXR_coarse_tune \$3 \$2;
#X obj 310 89 spigot;
#X obj 349 72 tgl 15 0 empty empty empty 17 7 0 10 #fcfcfc #000000
#000000 0 1;
#X text 237 49 turn this off if using \$1-note;
#X text 186 132 you have to set patch^^ this yourself;
#X connect 1 0 8 0;
#X connect 1 0 15 0;
#X connect 2 0 8 1;
#X connect 4 0 3 0;
#X connect 5 0 3 0;
#X connect 8 0 0 0;
#X connect 9 0 18 0;
#X connect 9 0 20 0;
#X connect 20 0 19 0;
#X connect 21 0 20 1;
