#N canvas 764 256 398 172 12;
#X text 76 2 Creation Arguments:;
#X text 75 20 (\$0 -- unique local variable);
#X text 74 39 \$1 -- CC fine-tune #;
#X obj 29 11 inlet;
#X obj 29 32 i;
#X obj 29 53 -;
#X obj 29 95 i;
#X obj 29 74 expr ($f1*64)+64;
#X listbox 77 137 20 0 0 0 - - - 0;
#X obj 29 137 ctlout;
#X text 76 55 \$2 -- Port Channel 1 (i.e. 1 \, 17 \, 33 \, 49);
#X obj 29 116 pack f \$1 \$2;
#X connect 3 0 4 0;
#X connect 3 0 5 0;
#X connect 4 0 5 1;
#X connect 5 0 7 0;
#X connect 6 0 11 0;
#X connect 7 0 6 0;
#X connect 11 0 8 0;
#X connect 11 0 9 0;
