#N canvas 266 291 279 185 12;
#X obj 37 131 noteout;
#X obj 37 68 r \$1-note;
#X obj 74 89 r \$1-velocity;
#X obj 176 45 f \$1;
#X obj 176 23 loadbang;
#X obj 37 23 r SEND_ALL_CHANNELS;
#X text 123 45 Channel;
#X obj 37 110 pack f f \$1;
#X obj 37 44 doctor_note_test \$1;
#X connect 1 0 7 0;
#X connect 2 0 7 1;
#X connect 4 0 3 0;
#X connect 5 0 3 0;
#X connect 7 0 0 0;
