#N canvas 54 25 1314 720 12;
#N canvas 1309 25 125 350 TG100_BANK 1;
#X obj 14 4 TG100_voice 1;
#X obj 14 25 TG100_voice 2;
#X obj 14 46 TG100_voice 3;
#X obj 14 67 TG100_voice 4;
#X obj 14 88 TG100_voice 5;
#X obj 14 109 TG100_voice 6;
#X obj 14 130 TG100_voice 7;
#X obj 14 151 TG100_voice 8;
#X obj 14 172 TG100_voice 9;
#X obj 4 193 TG100_voice 10;
#X obj 14 214 TG100_voice 11;
#X obj 14 235 TG100_voice 12;
#X obj 14 256 TG100_voice 13;
#X obj 14 277 TG100_voice 14;
#X obj 14 298 TG100_voice 15;
#X obj 14 319 TG100_voice 16;
#X restore 21 143 pd TG100_BANK;
#N canvas 143 432 835 383 PREPROCESSING 0;
#X obj 619 69 bp~ 5000 5;
#X obj 619 132 unpack f f f f;
#X obj 619 197 unpack f f f f;
#X obj 619 263 unpack f f f f;
#X obj 32 69 output~;
#X obj 619 90 sigmund~ -npeak 3 tracks;
#X obj 619 111 route 0 1 2;
#X obj 99 69 bp~ 5000 5;
#X obj 99 132 unpack f f f f;
#X obj 99 197 unpack f f f f;
#X obj 99 263 unpack f f f f;
#X obj 99 90 sigmund~ -npeak 3 tracks;
#X obj 99 111 route 0 1 2;
#X obj 273 69 bp~ 5000 5;
#X obj 273 132 unpack f f f f;
#X obj 273 197 unpack f f f f;
#X obj 273 263 unpack f f f f;
#X obj 273 90 sigmund~ -npeak 3 tracks;
#X obj 273 111 route 0 1 2;
#X obj 515 263 bp~ 5000 5;
#N canvas 506 100 450 300 tenor_voice 0;
#X obj 89 26 inlet~;
#X obj 124 108 env~;
#X obj 40 162 outlet;
#X obj 120 186 outlet;
#X obj 120 162 expr ($f1-20)*2;
#X obj 40 108 bp~ 5000 10;
#X obj 40 132 sigmund~ -minpower 7 -stabletime 5 -vibrato 0.5 notes
;
#X connect 0 0 1 0;
#X connect 0 0 5 0;
#X connect 1 0 4 0;
#X connect 4 0 3 0;
#X connect 5 0 6 0;
#X connect 6 0 2 0;
#X restore 515 284 pd tenor_voice;
#N canvas 506 100 450 300 alto_voice 0;
#X obj 89 26 inlet~;
#X obj 130 108 env~;
#X obj 40 162 outlet;
#X obj 120 186 outlet;
#X obj 120 162 expr ($f1-20)*2;
#X floatatom 227 92 5 0 0 0 - - - 0;
#X obj 40 108 bp~ 20000 10;
#X obj 40 132 sigmund~ -minpower 7 -stabletime 15 -vibrato 0.5 notes
;
#X connect 0 0 1 0;
#X connect 0 0 6 0;
#X connect 1 0 4 0;
#X connect 1 0 5 0;
#X connect 4 0 3 0;
#X connect 6 0 7 0;
#X connect 7 0 2 0;
#X restore 515 305 pd alto_voice;
#N canvas 302 320 477 316 pre-algo-1 0;
#X floatatom 26 113 9 0 0 0 - - - 0;
#X obj 197 133 sigmund~ -stabletime 15 notes;
#X obj 26 133 utility_oscillator;
#X obj 149 112 expr ($f1*20000)%127;
#X obj 26 92 inlet;
#X obj 149 91 inlet;
#X obj 110 154 outlet;
#X obj 197 154 outlet;
#X connect 0 0 2 0;
#X connect 1 0 6 0;
#X connect 2 0 1 0;
#X connect 3 0 2 2;
#X connect 3 0 7 0;
#X connect 4 0 0 0;
#X connect 5 0 3 0;
#X restore 99 153 pd pre-algo-1;
#N canvas 269 320 477 316 pre-algo-1 0;
#X floatatom 26 113 9 0 0 0 - - - 0;
#X obj 197 133 sigmund~ -stabletime 15 notes;
#X obj 26 133 utility_oscillator;
#X obj 149 112 expr ($f1*20000)%127;
#X obj 26 92 inlet;
#X obj 149 91 inlet;
#X obj 110 154 outlet;
#X obj 197 154 outlet;
#X connect 0 0 2 0;
#X connect 1 0 6 0;
#X connect 2 0 1 0;
#X connect 3 0 2 2;
#X connect 3 0 7 0;
#X connect 4 0 0 0;
#X connect 5 0 3 0;
#X restore 273 153 pd pre-algo-1;
#N canvas 269 320 477 316 pre-algo-1 0;
#X floatatom 26 113 9 0 0 0 - - - 0;
#X obj 197 133 sigmund~ -stabletime 15 notes;
#X obj 26 133 utility_oscillator;
#X obj 149 112 expr ($f1*20000)%127;
#X obj 26 92 inlet;
#X obj 149 91 inlet;
#X obj 110 154 outlet;
#X obj 197 154 outlet;
#X connect 0 0 2 0;
#X connect 1 0 6 0;
#X connect 2 0 1 0;
#X connect 3 0 2 2;
#X connect 3 0 7 0;
#X connect 4 0 0 0;
#X connect 5 0 3 0;
#X restore 619 153 pd pre-algo-1;
#X obj 716 153 s 11-note;
#X obj 619 174 s 11-velocity;
#X obj 716 174 s 11-pitch;
#N canvas 269 320 477 316 pre-algo-1 0;
#X floatatom 26 113 9 0 0 0 - - - 0;
#X obj 197 133 sigmund~ -stabletime 15 notes;
#X obj 26 133 utility_oscillator;
#X obj 149 112 expr ($f1*20000)%127;
#X obj 26 92 inlet;
#X obj 149 91 inlet;
#X obj 110 154 outlet;
#X obj 197 154 outlet;
#X connect 0 0 2 0;
#X connect 1 0 6 0;
#X connect 2 0 1 0;
#X connect 3 0 2 2;
#X connect 3 0 7 0;
#X connect 4 0 0 0;
#X connect 5 0 3 0;
#X restore 273 218 pd pre-algo-1;
#N canvas 269 320 477 316 pre-algo-1 0;
#X floatatom 26 113 9 0 0 0 - - - 0;
#X obj 197 133 sigmund~ -stabletime 15 notes;
#X obj 26 133 utility_oscillator;
#X obj 149 112 expr ($f1*20000)%127;
#X obj 26 92 inlet;
#X obj 149 91 inlet;
#X obj 110 154 outlet;
#X obj 197 154 outlet;
#X connect 0 0 2 0;
#X connect 1 0 6 0;
#X connect 2 0 1 0;
#X connect 3 0 2 2;
#X connect 3 0 7 0;
#X connect 4 0 0 0;
#X connect 5 0 3 0;
#X restore 99 218 pd pre-algo-1;
#N canvas 269 320 477 316 pre-algo-1 0;
#X floatatom 26 113 9 0 0 0 - - - 0;
#X obj 197 133 sigmund~ -stabletime 15 notes;
#X obj 26 133 utility_oscillator;
#X obj 149 112 expr ($f1*20000)%127;
#X obj 26 92 inlet;
#X obj 149 91 inlet;
#X obj 110 154 outlet;
#X obj 197 154 outlet;
#X connect 0 0 2 0;
#X connect 1 0 6 0;
#X connect 2 0 1 0;
#X connect 3 0 2 2;
#X connect 3 0 7 0;
#X connect 4 0 0 0;
#X connect 5 0 3 0;
#X restore 99 284 pd pre-algo-1;
#N canvas 269 320 477 316 pre-algo-1 0;
#X floatatom 26 113 9 0 0 0 - - - 0;
#X obj 197 133 sigmund~ -stabletime 15 notes;
#X obj 26 133 utility_oscillator;
#X obj 149 112 expr ($f1*20000)%127;
#X obj 26 92 inlet;
#X obj 149 91 inlet;
#X obj 110 154 outlet;
#X obj 197 154 outlet;
#X connect 0 0 2 0;
#X connect 1 0 6 0;
#X connect 2 0 1 0;
#X connect 3 0 2 2;
#X connect 3 0 7 0;
#X connect 4 0 0 0;
#X connect 5 0 3 0;
#X restore 619 218 pd pre-algo-1;
#X obj 716 218 s 11-note;
#X obj 619 239 s 11-velocity;
#X obj 716 239 s 11-pitch;
#N canvas 269 320 477 316 pre-algo-1 0;
#X floatatom 26 113 9 0 0 0 - - - 0;
#X obj 197 133 sigmund~ -stabletime 15 notes;
#X obj 26 133 utility_oscillator;
#X obj 149 112 expr ($f1*20000)%127;
#X obj 26 92 inlet;
#X obj 149 91 inlet;
#X obj 110 154 outlet;
#X obj 197 154 outlet;
#X connect 0 0 2 0;
#X connect 1 0 6 0;
#X connect 2 0 1 0;
#X connect 3 0 2 2;
#X connect 3 0 7 0;
#X connect 4 0 0 0;
#X connect 5 0 3 0;
#X restore 273 284 pd pre-algo-1;
#N canvas 269 320 477 316 pre-algo-1 0;
#X floatatom 26 113 9 0 0 0 - - - 0;
#X obj 197 133 sigmund~ -stabletime 15 notes;
#X obj 26 133 utility_oscillator;
#X obj 149 112 expr ($f1*20000)%127;
#X obj 26 92 inlet;
#X obj 149 91 inlet;
#X obj 110 154 outlet;
#X obj 197 154 outlet;
#X connect 0 0 2 0;
#X connect 1 0 6 0;
#X connect 2 0 1 0;
#X connect 3 0 2 2;
#X connect 3 0 7 0;
#X connect 4 0 0 0;
#X connect 5 0 3 0;
#X restore 619 284 pd pre-algo-1;
#X obj 716 284 s 11-note;
#X obj 619 305 s 11-velocity;
#X obj 716 305 s 11-pitch;
#X obj 196 153 s 27-note;
#X obj 196 174 s 27-pitch;
#X obj 99 174 s 27-velocity;
#X obj 196 218 s 28-note;
#X obj 196 239 s 28-pitch;
#X obj 99 239 s 28-velocity;
#X obj 196 284 s 29-note;
#X obj 196 305 s 29-pitch;
#X obj 99 305 s 29-velocity;
#X obj 370 153 s 30-note;
#X obj 370 174 s 30-pitch;
#X obj 273 174 s 30-velocity;
#X obj 370 218 s 31-note;
#X obj 370 239 s 31-pitch;
#X obj 273 239 s 31-velocity;
#X obj 370 305 s 32-pitch;
#X obj 370 284 s 32-note;
#X obj 273 305 s 32-velocity;
#X connect 0 0 5 0;
#X connect 5 0 6 0;
#X connect 6 0 1 0;
#X connect 6 1 2 0;
#X connect 6 2 3 0;
#X connect 7 0 11 0;
#X connect 8 0 22 0;
#X connect 8 1 22 1;
#X connect 9 0 29 0;
#X connect 9 1 29 1;
#X connect 10 0 30 0;
#X connect 10 1 30 1;
#X connect 11 0 12 0;
#X connect 12 0 8 0;
#X connect 12 1 9 0;
#X connect 12 2 10 0;
#X connect 13 0 17 0;
#X connect 14 0 23 0;
#X connect 14 1 23 1;
#X connect 15 0 28 0;
#X connect 15 1 28 1;
#X connect 16 0 35 0;
#X connect 16 1 35 1;
#X connect 17 0 18 0;
#X connect 18 0 14 0;
#X connect 18 1 15 0;
#X connect 18 2 16 0;
#X connect 22 0 40 0;
#X connect 22 0 41 0;
#X connect 22 1 42 0;
#X connect 23 0 49 0;
#X connect 23 0 50 0;
#X connect 23 1 51 0;
#X connect 24 0 25 0;
#X connect 24 0 27 0;
#X connect 24 1 26 0;
#X connect 28 0 52 0;
#X connect 28 0 53 0;
#X connect 28 1 54 0;
#X connect 29 0 43 0;
#X connect 29 0 44 0;
#X connect 29 1 45 0;
#X connect 30 0 46 0;
#X connect 30 0 47 0;
#X connect 30 1 48 0;
#X connect 31 0 32 0;
#X connect 31 0 34 0;
#X connect 31 1 33 0;
#X connect 35 0 55 0;
#X connect 35 0 56 0;
#X connect 35 1 57 0;
#X connect 36 0 37 0;
#X connect 36 0 39 0;
#X connect 36 1 38 0;
#X restore 21 101 pd PREPROCESSING;
#N canvas 121 146 450 300 MIDI_ANALYSIS 0;
#N canvas 506 100 450 300 tenor_voice 0;
#X obj 89 26 inlet~;
#X obj 124 108 env~;
#X obj 40 162 outlet;
#X obj 120 186 outlet;
#X obj 120 162 expr ($f1-20)*2;
#X obj 40 108 bp~ 5000 10;
#X obj 40 132 sigmund~ -minpower 7 -stabletime 5 -vibrato 0.5 notes
;
#X connect 0 0 1 0;
#X connect 0 0 5 0;
#X connect 1 0 4 0;
#X connect 4 0 3 0;
#X connect 5 0 6 0;
#X connect 6 0 2 0;
#X restore 112 168 pd tenor_voice;
#N canvas 506 100 450 300 tenor_voice 0;
#X obj 89 26 inlet~;
#X obj 124 108 env~;
#X obj 40 162 outlet;
#X obj 120 186 outlet;
#X obj 120 162 expr ($f1-20)*2;
#X obj 40 108 bp~ 5000 10;
#X obj 40 132 sigmund~ -minpower 7 -stabletime 5 -vibrato 0.5 notes
;
#X connect 0 0 1 0;
#X connect 0 0 5 0;
#X connect 1 0 4 0;
#X connect 4 0 3 0;
#X connect 5 0 6 0;
#X connect 6 0 2 0;
#X restore 216 168 pd tenor_voice;
#N canvas 506 100 450 300 alto_voice 0;
#X obj 89 26 inlet~;
#X obj 130 108 env~;
#X obj 40 162 outlet;
#X obj 120 186 outlet;
#X obj 120 162 expr ($f1-20)*2;
#X floatatom 227 92 5 0 0 0 - - - 0;
#X obj 40 108 bp~ 20000 10;
#X obj 40 132 sigmund~ -minpower 7 -stabletime 15 -vibrato 0.5 notes
;
#X connect 0 0 1 0;
#X connect 0 0 6 0;
#X connect 1 0 4 0;
#X connect 1 0 5 0;
#X connect 4 0 3 0;
#X connect 6 0 7 0;
#X connect 7 0 2 0;
#X restore 97 128 pd alto_voice;
#N canvas 506 100 450 300 alto_voice 0;
#X obj 89 26 inlet~;
#X obj 130 108 env~;
#X obj 40 162 outlet;
#X obj 120 186 outlet;
#X obj 120 162 expr ($f1-20)*2;
#X floatatom 227 92 5 0 0 0 - - - 0;
#X obj 40 108 bp~ 20000 10;
#X obj 40 132 sigmund~ -minpower 7 -stabletime 15 -vibrato 0.5 notes
;
#X connect 0 0 1 0;
#X connect 0 0 6 0;
#X connect 1 0 4 0;
#X connect 1 0 5 0;
#X connect 4 0 3 0;
#X connect 6 0 7 0;
#X connect 7 0 2 0;
#X restore 194 128 pd alto_voice;
#X restore 21 122 pd MIDI_ANALYSIS;
#N canvas 726 25 454 200 LXR02_BANK 1;
#X obj 6 7 LXR_voice_template 27 17 9 10;
#X obj 6 28 LXR_voice_template 28 17 11 12;
#X obj 6 49 LXR_voice_template 29 17 13 14;
#X obj 6 70 LXR_voice_template 30 17 15 16;
#X obj 6 91 LXR_voice_template 31 17 17 18;
#X obj 6 112 LXR_voice_template 32 17 19 20;
#X text 14 145 could probably make this nicer by just hard coding these
6 voices with like all of their CC's or...what \, idk the cool ones?
;
#X restore 21 164 pd LXR02_BANK;
#N canvas 92 117 450 300 DIGITAKT 0;
#X restore 21 185 pd DIGITAKT;
#X obj 21 59 s SEND_ALL CHANNELS;
#X obj 21 42 bng 15 250 50 0 empty empty empty 17 7 0 10 #fcfcfc #000000
#000000;
#X text 40 40 Hard resend of all cahnnels;
#X obj 21 80 utility_oscillator;
#X obj 280 59 adc~ 1 2;
#X obj 428 59 adc~ 3 4;
#X obj 280 101 adc~ 5 6;
#X obj 280 80 s~ Koma-L;
#X obj 349 80 s~ Koma-R;
#X obj 428 80 s~ TG100-L;
#X obj 504 80 s~ TG100-R;
#X obj 280 122 s~ street-mic-L;
#X obj 391 122 s~ street-mic-R;
#X obj 512 101 adc~ 7 8;
#X obj 588 122 s~ LXR02-R;
#X obj 512 122 s~ LXR02-L;
#X text 277 43 INPUT SENDS;
#N canvas 414 541 781 300 LXR_CCs 1;
#X restore 21 206 pd LXR_CCs;
#X floatatom 163 352 5 0 0 0 - - - 0;
#X floatatom 286 352 5 0 0 0 - - - 0;
#X obj 163 372 s 1-note;
#X obj 286 372 s 1-velocity;
#X obj 163 310 r~ TG100-L;
#X floatatom 400 352 5 0 0 0 - - - 0;
#X floatatom 523 352 5 0 0 0 - - - 0;
#X obj 480 310 r~ TG100-R;
#X floatatom 637 352 5 0 0 0 - - - 0;
#X floatatom 760 352 5 0 0 0 - - - 0;
#X obj 637 310 r~ TG100-L;
#X floatatom 874 352 5 0 0 0 - - - 0;
#X floatatom 997 352 5 0 0 0 - - - 0;
#X obj 954 310 r~ TG100-R;
#X floatatom 163 436 5 0 0 0 - - - 0;
#X floatatom 286 436 5 0 0 0 - - - 0;
#X obj 243 394 r~ TG100-R;
#X floatatom 400 436 5 0 0 0 - - - 0;
#X floatatom 523 436 5 0 0 0 - - - 0;
#X obj 400 394 r~ TG100-L;
#X floatatom 637 436 5 0 0 0 - - - 0;
#X floatatom 760 436 5 0 0 0 - - - 0;
#X obj 717 394 r~ TG100-R;
#X floatatom 874 436 5 0 0 0 - - - 0;
#X floatatom 997 436 5 0 0 0 - - - 0;
#X obj 874 394 r~ TG100-L;
#X floatatom 163 520 5 0 0 0 - - - 0;
#X floatatom 286 520 5 0 0 0 - - - 0;
#X obj 163 499 sigmund~ -stabletime 10 notes env;
#X obj 163 478 r~ TG100-L;
#X obj 243 478 r~ TG100-R;
#X obj 400 372 s 2-note;
#X obj 523 372 s 2-velocity;
#X obj 637 372 s 3-note;
#X obj 760 372 s 3-velocity;
#X obj 874 372 s 4-note;
#X obj 997 372 s 4-velocity;
#X obj 874 456 s 5-note;
#X obj 997 456 s 5-velocity;
#X obj 637 456 s 6-note;
#X obj 760 456 s 6-velocity;
#X obj 400 456 s 7-note;
#X obj 523 456 s 7-velocity;
#X obj 286 456 s 8-velocity;
#X obj 163 456 s 8-note;
#X obj 163 540 s 9-note;
#X obj 286 540 s 9-velocity;
#X obj 163 415 sigmund~ -stabletime 20 notes env;
#X obj 400 415 sigmund~ -stabletime 30 notes env;
#X obj 637 415 sigmund~ -stabletime 40 notes env;
#X obj 874 415 sigmund~ -stabletime 50 notes env;
#X obj 874 331 sigmund~ -stabletime 60 notes env;
#X obj 637 331 sigmund~ -stabletime 70 notes env;
#X obj 400 331 sigmund~ -stabletime 80 notes env;
#X obj 163 331 sigmund~ -stabletime 90 notes env;
#X connect 6 0 5 0;
#X connect 9 0 12 0;
#X connect 9 1 13 0;
#X connect 10 0 14 0;
#X connect 10 1 15 0;
#X connect 11 0 16 0;
#X connect 11 1 17 0;
#X connect 18 0 20 0;
#X connect 18 1 19 0;
#X connect 23 0 25 0;
#X connect 24 0 26 0;
#X connect 27 0 77 0;
#X connect 28 0 54 0;
#X connect 29 0 55 0;
#X connect 30 0 76 0;
#X connect 31 0 56 0;
#X connect 32 0 57 0;
#X connect 33 0 75 0;
#X connect 34 0 58 0;
#X connect 35 0 59 0;
#X connect 36 0 74 0;
#X connect 37 0 67 0;
#X connect 38 0 66 0;
#X connect 39 0 70 0;
#X connect 40 0 64 0;
#X connect 41 0 65 0;
#X connect 42 0 71 0;
#X connect 43 0 62 0;
#X connect 44 0 63 0;
#X connect 45 0 72 0;
#X connect 46 0 60 0;
#X connect 47 0 61 0;
#X connect 48 0 73 0;
#X connect 49 0 68 0;
#X connect 50 0 69 0;
#X connect 51 0 49 0;
#X connect 51 1 50 0;
#X connect 52 0 51 0;
#X connect 53 0 51 0;
#X connect 70 0 37 0;
#X connect 70 1 38 0;
#X connect 71 0 40 0;
#X connect 71 1 41 0;
#X connect 72 0 43 0;
#X connect 72 1 44 0;
#X connect 73 0 46 0;
#X connect 73 1 47 0;
#X connect 74 0 34 0;
#X connect 74 1 35 0;
#X connect 75 0 31 0;
#X connect 75 1 32 0;
#X connect 76 0 28 0;
#X connect 76 1 29 0;
#X connect 77 0 23 0;
#X connect 77 1 24 0;
