#N canvas 601 282 718 453 12;
#N canvas 143 432 835 383 PREPROCESSING 0;
#X obj 619 69 bp~ 5000 5;
#X obj 619 132 unpack f f f f;
#X obj 619 197 unpack f f f f;
#X obj 619 263 unpack f f f f;
#X obj 32 69 output~;
#X obj 619 90 sigmund~ -npeak 3 tracks;
#X obj 619 111 route 0 1 2;
#X obj 99 69 bp~ 5000 5;
#X obj 99 132 unpack f f f f;
#X obj 99 197 unpack f f f f;
#X obj 99 263 unpack f f f f;
#X obj 99 90 sigmund~ -npeak 3 tracks;
#X obj 99 111 route 0 1 2;
#X obj 273 69 bp~ 5000 5;
#X obj 273 132 unpack f f f f;
#X obj 273 197 unpack f f f f;
#X obj 273 263 unpack f f f f;
#X obj 273 90 sigmund~ -npeak 3 tracks;
#X obj 273 111 route 0 1 2;
#X obj 515 263 bp~ 5000 5;
#N canvas 506 100 450 300 tenor_voice 0;
#X obj 89 26 inlet~;
#X obj 124 108 env~;
#X obj 40 162 outlet;
#X obj 120 186 outlet;
#X obj 120 162 expr ($f1-20)*2;
#X obj 40 108 bp~ 5000 10;
#X obj 40 132 sigmund~ -minpower 7 -stabletime 5 -vibrato 0.5 notes
;
#X connect 0 0 1 0;
#X connect 0 0 5 0;
#X connect 1 0 4 0;
#X connect 4 0 3 0;
#X connect 5 0 6 0;
#X connect 6 0 2 0;
#X restore 515 284 pd tenor_voice;
#N canvas 506 100 450 300 alto_voice 0;
#X obj 89 26 inlet~;
#X obj 130 108 env~;
#X obj 40 162 outlet;
#X obj 120 186 outlet;
#X obj 120 162 expr ($f1-20)*2;
#X floatatom 227 92 5 0 0 0 - - - 0;
#X obj 40 108 bp~ 20000 10;
#X obj 40 132 sigmund~ -minpower 7 -stabletime 15 -vibrato 0.5 notes
;
#X connect 0 0 1 0;
#X connect 0 0 6 0;
#X connect 1 0 4 0;
#X connect 1 0 5 0;
#X connect 4 0 3 0;
#X connect 6 0 7 0;
#X connect 7 0 2 0;
#X restore 515 305 pd alto_voice;
#N canvas 302 320 477 316 pre-algo-1 0;
#X floatatom 26 113 9 0 0 0 - - - 0;
#X obj 197 133 sigmund~ -stabletime 15 notes;
#X obj 26 133 utility_oscillator;
#X obj 149 112 expr ($f1*20000)%127;
#X obj 26 92 inlet;
#X obj 149 91 inlet;
#X obj 110 154 outlet;
#X obj 197 154 outlet;
#X connect 0 0 2 0;
#X connect 1 0 6 0;
#X connect 2 0 1 0;
#X connect 3 0 2 2;
#X connect 3 0 7 0;
#X connect 4 0 0 0;
#X connect 5 0 3 0;
#X restore 99 153 pd pre-algo-1;
#N canvas 269 320 477 316 pre-algo-1 0;
#X floatatom 26 113 9 0 0 0 - - - 0;
#X obj 197 133 sigmund~ -stabletime 15 notes;
#X obj 26 133 utility_oscillator;
#X obj 149 112 expr ($f1*20000)%127;
#X obj 26 92 inlet;
#X obj 149 91 inlet;
#X obj 110 154 outlet;
#X obj 197 154 outlet;
#X connect 0 0 2 0;
#X connect 1 0 6 0;
#X connect 2 0 1 0;
#X connect 3 0 2 2;
#X connect 3 0 7 0;
#X connect 4 0 0 0;
#X connect 5 0 3 0;
#X restore 273 153 pd pre-algo-1;
#N canvas 269 320 477 316 pre-algo-1 0;
#X floatatom 26 113 9 0 0 0 - - - 0;
#X obj 197 133 sigmund~ -stabletime 15 notes;
#X obj 26 133 utility_oscillator;
#X obj 149 112 expr ($f1*20000)%127;
#X obj 26 92 inlet;
#X obj 149 91 inlet;
#X obj 110 154 outlet;
#X obj 197 154 outlet;
#X connect 0 0 2 0;
#X connect 1 0 6 0;
#X connect 2 0 1 0;
#X connect 3 0 2 2;
#X connect 3 0 7 0;
#X connect 4 0 0 0;
#X connect 5 0 3 0;
#X restore 619 153 pd pre-algo-1;
#X obj 716 153 s 11-note;
#X obj 619 174 s 11-velocity;
#X obj 716 174 s 11-pitch;
#N canvas 269 320 477 316 pre-algo-1 0;
#X floatatom 26 113 9 0 0 0 - - - 0;
#X obj 197 133 sigmund~ -stabletime 15 notes;
#X obj 26 133 utility_oscillator;
#X obj 149 112 expr ($f1*20000)%127;
#X obj 26 92 inlet;
#X obj 149 91 inlet;
#X obj 110 154 outlet;
#X obj 197 154 outlet;
#X connect 0 0 2 0;
#X connect 1 0 6 0;
#X connect 2 0 1 0;
#X connect 3 0 2 2;
#X connect 3 0 7 0;
#X connect 4 0 0 0;
#X connect 5 0 3 0;
#X restore 273 218 pd pre-algo-1;
#N canvas 269 320 477 316 pre-algo-1 0;
#X floatatom 26 113 9 0 0 0 - - - 0;
#X obj 197 133 sigmund~ -stabletime 15 notes;
#X obj 26 133 utility_oscillator;
#X obj 149 112 expr ($f1*20000)%127;
#X obj 26 92 inlet;
#X obj 149 91 inlet;
#X obj 110 154 outlet;
#X obj 197 154 outlet;
#X connect 0 0 2 0;
#X connect 1 0 6 0;
#X connect 2 0 1 0;
#X connect 3 0 2 2;
#X connect 3 0 7 0;
#X connect 4 0 0 0;
#X connect 5 0 3 0;
#X restore 99 218 pd pre-algo-1;
#N canvas 269 320 477 316 pre-algo-1 0;
#X floatatom 26 113 9 0 0 0 - - - 0;
#X obj 197 133 sigmund~ -stabletime 15 notes;
#X obj 26 133 utility_oscillator;
#X obj 149 112 expr ($f1*20000)%127;
#X obj 26 92 inlet;
#X obj 149 91 inlet;
#X obj 110 154 outlet;
#X obj 197 154 outlet;
#X connect 0 0 2 0;
#X connect 1 0 6 0;
#X connect 2 0 1 0;
#X connect 3 0 2 2;
#X connect 3 0 7 0;
#X connect 4 0 0 0;
#X connect 5 0 3 0;
#X restore 99 284 pd pre-algo-1;
#N canvas 269 320 477 316 pre-algo-1 0;
#X floatatom 26 113 9 0 0 0 - - - 0;
#X obj 197 133 sigmund~ -stabletime 15 notes;
#X obj 26 133 utility_oscillator;
#X obj 149 112 expr ($f1*20000)%127;
#X obj 26 92 inlet;
#X obj 149 91 inlet;
#X obj 110 154 outlet;
#X obj 197 154 outlet;
#X connect 0 0 2 0;
#X connect 1 0 6 0;
#X connect 2 0 1 0;
#X connect 3 0 2 2;
#X connect 3 0 7 0;
#X connect 4 0 0 0;
#X connect 5 0 3 0;
#X restore 619 218 pd pre-algo-1;
#X obj 716 218 s 11-note;
#X obj 619 239 s 11-velocity;
#X obj 716 239 s 11-pitch;
#N canvas 269 320 477 316 pre-algo-1 0;
#X floatatom 26 113 9 0 0 0 - - - 0;
#X obj 197 133 sigmund~ -stabletime 15 notes;
#X obj 26 133 utility_oscillator;
#X obj 149 112 expr ($f1*20000)%127;
#X obj 26 92 inlet;
#X obj 149 91 inlet;
#X obj 110 154 outlet;
#X obj 197 154 outlet;
#X connect 0 0 2 0;
#X connect 1 0 6 0;
#X connect 2 0 1 0;
#X connect 3 0 2 2;
#X connect 3 0 7 0;
#X connect 4 0 0 0;
#X connect 5 0 3 0;
#X restore 273 284 pd pre-algo-1;
#N canvas 269 320 477 316 pre-algo-1 0;
#X floatatom 26 113 9 0 0 0 - - - 0;
#X obj 197 133 sigmund~ -stabletime 15 notes;
#X obj 26 133 utility_oscillator;
#X obj 149 112 expr ($f1*20000)%127;
#X obj 26 92 inlet;
#X obj 149 91 inlet;
#X obj 110 154 outlet;
#X obj 197 154 outlet;
#X connect 0 0 2 0;
#X connect 1 0 6 0;
#X connect 2 0 1 0;
#X connect 3 0 2 2;
#X connect 3 0 7 0;
#X connect 4 0 0 0;
#X connect 5 0 3 0;
#X restore 619 284 pd pre-algo-1;
#X obj 716 284 s 11-note;
#X obj 619 305 s 11-velocity;
#X obj 716 305 s 11-pitch;
#X obj 196 153 s 27-note;
#X obj 196 174 s 27-pitch;
#X obj 99 174 s 27-velocity;
#X obj 196 218 s 28-note;
#X obj 196 239 s 28-pitch;
#X obj 99 239 s 28-velocity;
#X obj 196 284 s 29-note;
#X obj 196 305 s 29-pitch;
#X obj 99 305 s 29-velocity;
#X obj 370 153 s 30-note;
#X obj 370 174 s 30-pitch;
#X obj 273 174 s 30-velocity;
#X obj 370 218 s 31-note;
#X obj 370 239 s 31-pitch;
#X obj 273 239 s 31-velocity;
#X obj 370 305 s 32-pitch;
#X obj 370 284 s 32-note;
#X obj 273 305 s 32-velocity;
#X connect 0 0 5 0;
#X connect 5 0 6 0;
#X connect 6 0 1 0;
#X connect 6 1 2 0;
#X connect 6 2 3 0;
#X connect 7 0 11 0;
#X connect 8 0 22 0;
#X connect 8 1 22 1;
#X connect 9 0 29 0;
#X connect 9 1 29 1;
#X connect 10 0 30 0;
#X connect 10 1 30 1;
#X connect 11 0 12 0;
#X connect 12 0 8 0;
#X connect 12 1 9 0;
#X connect 12 2 10 0;
#X connect 13 0 17 0;
#X connect 14 0 23 0;
#X connect 14 1 23 1;
#X connect 15 0 28 0;
#X connect 15 1 28 1;
#X connect 16 0 35 0;
#X connect 16 1 35 1;
#X connect 17 0 18 0;
#X connect 18 0 14 0;
#X connect 18 1 15 0;
#X connect 18 2 16 0;
#X connect 22 0 40 0;
#X connect 22 0 41 0;
#X connect 22 1 42 0;
#X connect 23 0 49 0;
#X connect 23 0 50 0;
#X connect 23 1 51 0;
#X connect 24 0 25 0;
#X connect 24 0 27 0;
#X connect 24 1 26 0;
#X connect 28 0 52 0;
#X connect 28 0 53 0;
#X connect 28 1 54 0;
#X connect 29 0 43 0;
#X connect 29 0 44 0;
#X connect 29 1 45 0;
#X connect 30 0 46 0;
#X connect 30 0 47 0;
#X connect 30 1 48 0;
#X connect 31 0 32 0;
#X connect 31 0 34 0;
#X connect 31 1 33 0;
#X connect 35 0 55 0;
#X connect 35 0 56 0;
#X connect 35 1 57 0;
#X connect 36 0 37 0;
#X connect 36 0 39 0;
#X connect 36 1 38 0;
#X restore 21 101 pd PREPROCESSING;
#N canvas 121 146 450 300 MIDI_ANALYSIS 0;
#N canvas 506 100 450 300 tenor_voice 0;
#X obj 89 26 inlet~;
#X obj 124 108 env~;
#X obj 40 162 outlet;
#X obj 120 186 outlet;
#X obj 120 162 expr ($f1-20)*2;
#X obj 40 108 bp~ 5000 10;
#X obj 40 132 sigmund~ -minpower 7 -stabletime 5 -vibrato 0.5 notes
;
#X connect 0 0 1 0;
#X connect 0 0 5 0;
#X connect 1 0 4 0;
#X connect 4 0 3 0;
#X connect 5 0 6 0;
#X connect 6 0 2 0;
#X restore 112 168 pd tenor_voice;
#N canvas 506 100 450 300 tenor_voice 0;
#X obj 89 26 inlet~;
#X obj 124 108 env~;
#X obj 40 162 outlet;
#X obj 120 186 outlet;
#X obj 120 162 expr ($f1-20)*2;
#X obj 40 108 bp~ 5000 10;
#X obj 40 132 sigmund~ -minpower 7 -stabletime 5 -vibrato 0.5 notes
;
#X connect 0 0 1 0;
#X connect 0 0 5 0;
#X connect 1 0 4 0;
#X connect 4 0 3 0;
#X connect 5 0 6 0;
#X connect 6 0 2 0;
#X restore 216 168 pd tenor_voice;
#N canvas 506 100 450 300 alto_voice 0;
#X obj 89 26 inlet~;
#X obj 130 108 env~;
#X obj 40 162 outlet;
#X obj 120 186 outlet;
#X obj 120 162 expr ($f1-20)*2;
#X floatatom 227 92 5 0 0 0 - - - 0;
#X obj 40 108 bp~ 20000 10;
#X obj 40 132 sigmund~ -minpower 7 -stabletime 15 -vibrato 0.5 notes
;
#X connect 0 0 1 0;
#X connect 0 0 6 0;
#X connect 1 0 4 0;
#X connect 1 0 5 0;
#X connect 4 0 3 0;
#X connect 6 0 7 0;
#X connect 7 0 2 0;
#X restore 97 128 pd alto_voice;
#N canvas 506 100 450 300 alto_voice 0;
#X obj 89 26 inlet~;
#X obj 130 108 env~;
#X obj 40 162 outlet;
#X obj 120 186 outlet;
#X obj 120 162 expr ($f1-20)*2;
#X floatatom 227 92 5 0 0 0 - - - 0;
#X obj 40 108 bp~ 20000 10;
#X obj 40 132 sigmund~ -minpower 7 -stabletime 15 -vibrato 0.5 notes
;
#X connect 0 0 1 0;
#X connect 0 0 6 0;
#X connect 1 0 4 0;
#X connect 1 0 5 0;
#X connect 4 0 3 0;
#X connect 6 0 7 0;
#X connect 7 0 2 0;
#X restore 194 128 pd alto_voice;
#X restore 21 122 pd MIDI_ANALYSIS;
#N canvas 726 25 454 200 LXR02_BANK 1;
#X obj 6 7 LXR_voice_template 27 17 9 10;
#X obj 6 28 LXR_voice_template 28 17 11 12;
#X obj 6 49 LXR_voice_template 29 17 13 14;
#X obj 6 70 LXR_voice_template 30 17 15 16;
#X obj 6 91 LXR_voice_template 31 17 17 18;
#X obj 6 112 LXR_voice_template 32 17 19 20;
#X text 14 145 could probably make this nicer by just hard coding these
6 voices with like all of their CC's or...what \, idk the cool ones?
;
#X restore 21 164 pd LXR02_BANK;
#N canvas 92 117 450 300 DIGITAKT 0;
#X text 118 85 coming soon!;
#X restore 21 185 pd DIGITAKT;
#X obj 21 59 s SEND_ALL CHANNELS;
#X obj 21 42 bng 15 250 50 0 empty empty empty 17 7 0 10 #fcfcfc #000000
#000000;
#X text 40 40 Hard resend of all cahnnels;
#X obj 21 80 utility_oscillator;
#X obj 280 59 adc~ 1 2;
#X obj 428 59 adc~ 3 4;
#X obj 280 101 adc~ 5 6;
#X obj 280 80 s~ Koma-L;
#X obj 349 80 s~ Koma-R;
#X obj 428 80 s~ TG100-L;
#X obj 504 80 s~ TG100-R;
#X obj 280 122 s~ street-mic-L;
#X obj 391 122 s~ street-mic-R;
#X obj 512 101 adc~ 7 8;
#X obj 588 122 s~ LXR02-R;
#X obj 512 122 s~ LXR02-L;
#X text 277 43 INPUT SENDS;
#N canvas 737 328 781 300 LXR_CCs 0;
#X restore 21 206 pd LXR_CCs;
#X obj 139 270 TG100_voice 4 43;
#X obj 21 249 TG100_voice 1 41;
#X obj 139 249 TG100_voice 2 41;
#X obj 21 270 TG100_voice 3 42;
#X obj 336 274 s 1-note;
#X obj 209 198 TG100_drum 10;
#N canvas 506 100 450 300 tenor_voice 0;
#X obj 89 26 inlet~;
#X obj 124 108 env~;
#X obj 40 162 outlet;
#X obj 120 186 outlet;
#X obj 120 162 expr ($f1-20)*2;
#X obj 40 108 bp~ 5000 10;
#X floatatom 214 80 5 0 0 0 - - - 0;
#X obj 40 132 sigmund~ -minpower 7 -stabletime 10 -vibrato 0.25 notes
;
#X connect 0 0 1 0;
#X connect 0 0 5 0;
#X connect 1 0 4 0;
#X connect 1 0 6 0;
#X connect 4 0 3 0;
#X connect 5 0 7 0;
#X connect 7 0 2 0;
#X restore 336 252 pd tenor_voice;
#X obj 431 273 s 1-velocity;
#N canvas 506 100 450 300 tenor_voice 0;
#X obj 89 26 inlet~;
#X obj 124 108 env~;
#X obj 40 162 outlet;
#X obj 120 186 outlet;
#X obj 120 162 expr ($f1-20)*2;
#X obj 40 108 bp~ 5000 10;
#X floatatom 214 80 5 0 0 0 - - - 0;
#X obj 40 132 sigmund~ -minpower 7 -stabletime 10 -vibrato 0.25 notes
;
#X connect 0 0 1 0;
#X connect 0 0 5 0;
#X connect 1 0 4 0;
#X connect 1 0 6 0;
#X connect 4 0 3 0;
#X connect 5 0 7 0;
#X connect 7 0 2 0;
#X restore 346 322 pd tenor_voice;
#N canvas 506 100 450 300 tenor_voice 0;
#X obj 89 26 inlet~;
#X obj 124 108 env~;
#X obj 40 162 outlet;
#X obj 120 186 outlet;
#X obj 120 162 expr ($f1-20)*2;
#X obj 40 108 bp~ 5000 10;
#X floatatom 214 80 5 0 0 0 - - - 0;
#X obj 40 132 sigmund~ -minpower 7 -stabletime 10 -vibrato 0.25 notes
;
#X connect 0 0 1 0;
#X connect 0 0 5 0;
#X connect 1 0 4 0;
#X connect 1 0 6 0;
#X connect 4 0 3 0;
#X connect 5 0 7 0;
#X connect 7 0 2 0;
#X restore 516 222 pd tenor_voice;
#N canvas 506 100 450 300 tenor_voice 0;
#X obj 89 26 inlet~;
#X obj 124 108 env~;
#X obj 40 162 outlet;
#X obj 120 186 outlet;
#X obj 120 162 expr ($f1-20)*2;
#X obj 40 108 bp~ 5000 10;
#X floatatom 214 80 5 0 0 0 - - - 0;
#X obj 40 132 sigmund~ -minpower 7 -stabletime 10 -vibrato 0.25 notes
;
#X connect 0 0 1 0;
#X connect 0 0 5 0;
#X connect 1 0 4 0;
#X connect 1 0 6 0;
#X connect 4 0 3 0;
#X connect 5 0 7 0;
#X connect 7 0 2 0;
#X restore 526 292 pd tenor_voice;
#X obj 336 230 adc~ 3;
#X obj 346 300 adc~ 3;
#X obj 516 200 adc~ 4;
#X obj 526 270 adc~ 4;
#X obj 516 244 s 2-note;
#X obj 611 243 s 2-velocity;
#X obj 621 313 s 3-velocity;
#X obj 526 314 s 3-note;
#X obj 441 343 s 4-velocity;
#X obj 346 344 s 4-note;
#X connect 5 0 4 0;
#X connect 8 0 11 0;
#X connect 8 1 12 0;
#X connect 9 0 13 0;
#X connect 9 1 14 0;
#X connect 10 0 15 0;
#X connect 10 1 16 0;
#X connect 17 0 19 0;
#X connect 17 1 18 0;
#X connect 28 0 26 0;
#X connect 28 1 29 0;
#X connect 30 0 42 0;
#X connect 30 1 41 0;
#X connect 31 0 37 0;
#X connect 31 1 38 0;
#X connect 32 0 40 0;
#X connect 32 1 39 0;
#X connect 33 0 28 0;
#X connect 34 0 30 0;
#X connect 35 0 31 0;
#X connect 36 0 32 0;
