#N canvas 19 31 1423 758 12;
#N canvas 236 134 125 350 TG100_BANK 0;
#X obj 14 4 TG100_voice 1;
#X obj 14 25 TG100_voice 2;
#X obj 14 46 TG100_voice 3;
#X obj 14 67 TG100_voice 4;
#X obj 14 88 TG100_voice 5;
#X obj 14 109 TG100_voice 6;
#X obj 14 130 TG100_voice 7;
#X obj 14 151 TG100_voice 8;
#X obj 14 172 TG100_voice 9;
#X obj 4 193 TG100_voice 10;
#X obj 14 214 TG100_voice 11;
#X obj 14 235 TG100_voice 12;
#X obj 14 256 TG100_voice 13;
#X obj 14 277 TG100_voice 14;
#X obj 14 298 TG100_voice 15;
#X obj 14 319 TG100_voice 16;
#X restore 21 143 pd TG100_BANK;
#N canvas 143 432 835 383 PREPROCESSING 0;
#X obj 619 69 bp~ 5000 5;
#X obj 619 132 unpack f f f f;
#X obj 619 197 unpack f f f f;
#X obj 619 263 unpack f f f f;
#X obj 32 69 output~;
#X obj 619 90 sigmund~ -npeak 3 tracks;
#X obj 619 111 route 0 1 2;
#X obj 99 69 bp~ 5000 5;
#X obj 99 132 unpack f f f f;
#X obj 99 197 unpack f f f f;
#X obj 99 263 unpack f f f f;
#X obj 99 90 sigmund~ -npeak 3 tracks;
#X obj 99 111 route 0 1 2;
#X obj 273 69 bp~ 5000 5;
#X obj 273 132 unpack f f f f;
#X obj 273 197 unpack f f f f;
#X obj 273 263 unpack f f f f;
#X obj 273 90 sigmund~ -npeak 3 tracks;
#X obj 273 111 route 0 1 2;
#X obj 515 263 bp~ 5000 5;
#N canvas 506 100 450 300 tenor_voice 0;
#X obj 89 26 inlet~;
#X obj 124 108 env~;
#X obj 40 162 outlet;
#X obj 120 186 outlet;
#X obj 120 162 expr ($f1-20)*2;
#X obj 40 108 bp~ 5000 10;
#X obj 40 132 sigmund~ -minpower 7 -stabletime 5 -vibrato 0.5 notes
;
#X connect 0 0 1 0;
#X connect 0 0 5 0;
#X connect 1 0 4 0;
#X connect 4 0 3 0;
#X connect 5 0 6 0;
#X connect 6 0 2 0;
#X restore 515 284 pd tenor_voice;
#N canvas 506 100 450 300 alto_voice 0;
#X obj 89 26 inlet~;
#X obj 130 108 env~;
#X obj 40 162 outlet;
#X obj 120 186 outlet;
#X obj 120 162 expr ($f1-20)*2;
#X floatatom 227 92 5 0 0 0 - - - 0;
#X obj 40 108 bp~ 20000 10;
#X obj 40 132 sigmund~ -minpower 7 -stabletime 15 -vibrato 0.5 notes
;
#X connect 0 0 1 0;
#X connect 0 0 6 0;
#X connect 1 0 4 0;
#X connect 1 0 5 0;
#X connect 4 0 3 0;
#X connect 6 0 7 0;
#X connect 7 0 2 0;
#X restore 515 305 pd alto_voice;
#N canvas 302 320 477 316 pre-algo-1 0;
#X floatatom 26 113 9 0 0 0 - - - 0;
#X obj 197 133 sigmund~ -stabletime 15 notes;
#X obj 26 133 utility_oscillator;
#X obj 149 112 expr ($f1*20000)%127;
#X obj 26 92 inlet;
#X obj 149 91 inlet;
#X obj 110 154 outlet;
#X obj 197 154 outlet;
#X connect 0 0 2 0;
#X connect 1 0 6 0;
#X connect 2 0 1 0;
#X connect 3 0 2 2;
#X connect 3 0 7 0;
#X connect 4 0 0 0;
#X connect 5 0 3 0;
#X restore 99 153 pd pre-algo-1;
#N canvas 269 320 477 316 pre-algo-1 0;
#X floatatom 26 113 9 0 0 0 - - - 0;
#X obj 197 133 sigmund~ -stabletime 15 notes;
#X obj 26 133 utility_oscillator;
#X obj 149 112 expr ($f1*20000)%127;
#X obj 26 92 inlet;
#X obj 149 91 inlet;
#X obj 110 154 outlet;
#X obj 197 154 outlet;
#X connect 0 0 2 0;
#X connect 1 0 6 0;
#X connect 2 0 1 0;
#X connect 3 0 2 2;
#X connect 3 0 7 0;
#X connect 4 0 0 0;
#X connect 5 0 3 0;
#X restore 273 153 pd pre-algo-1;
#N canvas 269 320 477 316 pre-algo-1 0;
#X floatatom 26 113 9 0 0 0 - - - 0;
#X obj 197 133 sigmund~ -stabletime 15 notes;
#X obj 26 133 utility_oscillator;
#X obj 149 112 expr ($f1*20000)%127;
#X obj 26 92 inlet;
#X obj 149 91 inlet;
#X obj 110 154 outlet;
#X obj 197 154 outlet;
#X connect 0 0 2 0;
#X connect 1 0 6 0;
#X connect 2 0 1 0;
#X connect 3 0 2 2;
#X connect 3 0 7 0;
#X connect 4 0 0 0;
#X connect 5 0 3 0;
#X restore 619 153 pd pre-algo-1;
#X obj 716 153 s 11-note;
#X obj 619 174 s 11-velocity;
#X obj 716 174 s 11-pitch;
#N canvas 269 320 477 316 pre-algo-1 0;
#X floatatom 26 113 9 0 0 0 - - - 0;
#X obj 197 133 sigmund~ -stabletime 15 notes;
#X obj 26 133 utility_oscillator;
#X obj 149 112 expr ($f1*20000)%127;
#X obj 26 92 inlet;
#X obj 149 91 inlet;
#X obj 110 154 outlet;
#X obj 197 154 outlet;
#X connect 0 0 2 0;
#X connect 1 0 6 0;
#X connect 2 0 1 0;
#X connect 3 0 2 2;
#X connect 3 0 7 0;
#X connect 4 0 0 0;
#X connect 5 0 3 0;
#X restore 273 218 pd pre-algo-1;
#N canvas 269 320 477 316 pre-algo-1 0;
#X floatatom 26 113 9 0 0 0 - - - 0;
#X obj 197 133 sigmund~ -stabletime 15 notes;
#X obj 26 133 utility_oscillator;
#X obj 149 112 expr ($f1*20000)%127;
#X obj 26 92 inlet;
#X obj 149 91 inlet;
#X obj 110 154 outlet;
#X obj 197 154 outlet;
#X connect 0 0 2 0;
#X connect 1 0 6 0;
#X connect 2 0 1 0;
#X connect 3 0 2 2;
#X connect 3 0 7 0;
#X connect 4 0 0 0;
#X connect 5 0 3 0;
#X restore 99 218 pd pre-algo-1;
#N canvas 269 320 477 316 pre-algo-1 0;
#X floatatom 26 113 9 0 0 0 - - - 0;
#X obj 197 133 sigmund~ -stabletime 15 notes;
#X obj 26 133 utility_oscillator;
#X obj 149 112 expr ($f1*20000)%127;
#X obj 26 92 inlet;
#X obj 149 91 inlet;
#X obj 110 154 outlet;
#X obj 197 154 outlet;
#X connect 0 0 2 0;
#X connect 1 0 6 0;
#X connect 2 0 1 0;
#X connect 3 0 2 2;
#X connect 3 0 7 0;
#X connect 4 0 0 0;
#X connect 5 0 3 0;
#X restore 99 284 pd pre-algo-1;
#N canvas 269 320 477 316 pre-algo-1 0;
#X floatatom 26 113 9 0 0 0 - - - 0;
#X obj 197 133 sigmund~ -stabletime 15 notes;
#X obj 26 133 utility_oscillator;
#X obj 149 112 expr ($f1*20000)%127;
#X obj 26 92 inlet;
#X obj 149 91 inlet;
#X obj 110 154 outlet;
#X obj 197 154 outlet;
#X connect 0 0 2 0;
#X connect 1 0 6 0;
#X connect 2 0 1 0;
#X connect 3 0 2 2;
#X connect 3 0 7 0;
#X connect 4 0 0 0;
#X connect 5 0 3 0;
#X restore 619 218 pd pre-algo-1;
#X obj 716 218 s 11-note;
#X obj 619 239 s 11-velocity;
#X obj 716 239 s 11-pitch;
#N canvas 269 320 477 316 pre-algo-1 0;
#X floatatom 26 113 9 0 0 0 - - - 0;
#X obj 197 133 sigmund~ -stabletime 15 notes;
#X obj 26 133 utility_oscillator;
#X obj 149 112 expr ($f1*20000)%127;
#X obj 26 92 inlet;
#X obj 149 91 inlet;
#X obj 110 154 outlet;
#X obj 197 154 outlet;
#X connect 0 0 2 0;
#X connect 1 0 6 0;
#X connect 2 0 1 0;
#X connect 3 0 2 2;
#X connect 3 0 7 0;
#X connect 4 0 0 0;
#X connect 5 0 3 0;
#X restore 273 284 pd pre-algo-1;
#N canvas 269 320 477 316 pre-algo-1 0;
#X floatatom 26 113 9 0 0 0 - - - 0;
#X obj 197 133 sigmund~ -stabletime 15 notes;
#X obj 26 133 utility_oscillator;
#X obj 149 112 expr ($f1*20000)%127;
#X obj 26 92 inlet;
#X obj 149 91 inlet;
#X obj 110 154 outlet;
#X obj 197 154 outlet;
#X connect 0 0 2 0;
#X connect 1 0 6 0;
#X connect 2 0 1 0;
#X connect 3 0 2 2;
#X connect 3 0 7 0;
#X connect 4 0 0 0;
#X connect 5 0 3 0;
#X restore 619 284 pd pre-algo-1;
#X obj 716 284 s 11-note;
#X obj 619 305 s 11-velocity;
#X obj 716 305 s 11-pitch;
#X obj 196 153 s 27-note;
#X obj 196 174 s 27-pitch;
#X obj 99 174 s 27-velocity;
#X obj 196 218 s 28-note;
#X obj 196 239 s 28-pitch;
#X obj 99 239 s 28-velocity;
#X obj 196 284 s 29-note;
#X obj 196 305 s 29-pitch;
#X obj 99 305 s 29-velocity;
#X obj 370 153 s 30-note;
#X obj 370 174 s 30-pitch;
#X obj 273 174 s 30-velocity;
#X obj 370 218 s 31-note;
#X obj 370 239 s 31-pitch;
#X obj 273 239 s 31-velocity;
#X obj 370 305 s 32-pitch;
#X obj 370 284 s 32-note;
#X obj 273 305 s 32-velocity;
#X connect 0 0 5 0;
#X connect 5 0 6 0;
#X connect 6 0 1 0;
#X connect 6 1 2 0;
#X connect 6 2 3 0;
#X connect 7 0 11 0;
#X connect 8 0 22 0;
#X connect 8 1 22 1;
#X connect 9 0 29 0;
#X connect 9 1 29 1;
#X connect 10 0 30 0;
#X connect 10 1 30 1;
#X connect 11 0 12 0;
#X connect 12 0 8 0;
#X connect 12 1 9 0;
#X connect 12 2 10 0;
#X connect 13 0 17 0;
#X connect 14 0 23 0;
#X connect 14 1 23 1;
#X connect 15 0 28 0;
#X connect 15 1 28 1;
#X connect 16 0 35 0;
#X connect 16 1 35 1;
#X connect 17 0 18 0;
#X connect 18 0 14 0;
#X connect 18 1 15 0;
#X connect 18 2 16 0;
#X connect 22 0 40 0;
#X connect 22 0 41 0;
#X connect 22 1 42 0;
#X connect 23 0 49 0;
#X connect 23 0 50 0;
#X connect 23 1 51 0;
#X connect 24 0 25 0;
#X connect 24 0 27 0;
#X connect 24 1 26 0;
#X connect 28 0 52 0;
#X connect 28 0 53 0;
#X connect 28 1 54 0;
#X connect 29 0 43 0;
#X connect 29 0 44 0;
#X connect 29 1 45 0;
#X connect 30 0 46 0;
#X connect 30 0 47 0;
#X connect 30 1 48 0;
#X connect 31 0 32 0;
#X connect 31 0 34 0;
#X connect 31 1 33 0;
#X connect 35 0 55 0;
#X connect 35 0 56 0;
#X connect 35 1 57 0;
#X connect 36 0 37 0;
#X connect 36 0 39 0;
#X connect 36 1 38 0;
#X restore 21 101 pd PREPROCESSING;
#N canvas 121 146 450 300 MIDI_ANALYSIS 0;
#N canvas 506 100 450 300 tenor_voice 0;
#X obj 89 26 inlet~;
#X obj 124 108 env~;
#X obj 40 162 outlet;
#X obj 120 186 outlet;
#X obj 120 162 expr ($f1-20)*2;
#X obj 40 108 bp~ 5000 10;
#X obj 40 132 sigmund~ -minpower 7 -stabletime 5 -vibrato 0.5 notes
;
#X connect 0 0 1 0;
#X connect 0 0 5 0;
#X connect 1 0 4 0;
#X connect 4 0 3 0;
#X connect 5 0 6 0;
#X connect 6 0 2 0;
#X restore 112 168 pd tenor_voice;
#N canvas 506 100 450 300 tenor_voice 0;
#X obj 89 26 inlet~;
#X obj 124 108 env~;
#X obj 40 162 outlet;
#X obj 120 186 outlet;
#X obj 120 162 expr ($f1-20)*2;
#X obj 40 108 bp~ 5000 10;
#X obj 40 132 sigmund~ -minpower 7 -stabletime 5 -vibrato 0.5 notes
;
#X connect 0 0 1 0;
#X connect 0 0 5 0;
#X connect 1 0 4 0;
#X connect 4 0 3 0;
#X connect 5 0 6 0;
#X connect 6 0 2 0;
#X restore 216 168 pd tenor_voice;
#N canvas 506 100 450 300 alto_voice 0;
#X obj 89 26 inlet~;
#X obj 130 108 env~;
#X obj 40 162 outlet;
#X obj 120 186 outlet;
#X obj 120 162 expr ($f1-20)*2;
#X floatatom 227 92 5 0 0 0 - - - 0;
#X obj 40 108 bp~ 20000 10;
#X obj 40 132 sigmund~ -minpower 7 -stabletime 15 -vibrato 0.5 notes
;
#X connect 0 0 1 0;
#X connect 0 0 6 0;
#X connect 1 0 4 0;
#X connect 1 0 5 0;
#X connect 4 0 3 0;
#X connect 6 0 7 0;
#X connect 7 0 2 0;
#X restore 97 128 pd alto_voice;
#N canvas 506 100 450 300 alto_voice 0;
#X obj 89 26 inlet~;
#X obj 130 108 env~;
#X obj 40 162 outlet;
#X obj 120 186 outlet;
#X obj 120 162 expr ($f1-20)*2;
#X floatatom 227 92 5 0 0 0 - - - 0;
#X obj 40 108 bp~ 20000 10;
#X obj 40 132 sigmund~ -minpower 7 -stabletime 15 -vibrato 0.5 notes
;
#X connect 0 0 1 0;
#X connect 0 0 6 0;
#X connect 1 0 4 0;
#X connect 1 0 5 0;
#X connect 4 0 3 0;
#X connect 6 0 7 0;
#X connect 7 0 2 0;
#X restore 194 128 pd alto_voice;
#X restore 21 122 pd MIDI_ANALYSIS;
#N canvas 726 25 454 200 LXR02_BANK 1;
#X obj 6 7 LXR_voice_template 27 17 9 10;
#X obj 6 28 LXR_voice_template 28 17 11 12;
#X obj 6 49 LXR_voice_template 29 17 13 14;
#X obj 6 70 LXR_voice_template 30 17 15 16;
#X obj 6 91 LXR_voice_template 31 17 17 18;
#X obj 6 112 LXR_voice_template 32 17 19 20;
#X text 14 145 could probably make this nicer by just hard coding these
6 voices with like all of their CC's or...what \, idk the cool ones?
;
#X restore 21 164 pd LXR02_BANK;
#N canvas 92 117 450 300 DIGITAKT 0;
#X restore 21 185 pd DIGITAKT;
#X obj 21 59 s SEND_ALL CHANNELS;
#X obj 21 42 bng 15 250 50 0 empty empty empty 17 7 0 10 #fcfcfc #000000
#000000;
#X text 40 40 Hard resend of all cahnnels;
#X obj 21 80 utility_oscillator;
#X obj 280 59 adc~ 1 2;
#X obj 428 59 adc~ 3 4;
#X obj 280 101 adc~ 5 6;
#X obj 280 80 s~ Koma-L;
#X obj 349 80 s~ Koma-R;
#X obj 428 80 s~ TG100-L;
#X obj 504 80 s~ TG100-R;
#X obj 280 122 s~ street-mic-L;
#X obj 391 122 s~ street-mic-R;
#X obj 512 101 adc~ 7 8;
#X obj 588 122 s~ LXR02-R;
#X obj 512 122 s~ LXR02-L;
#X obj 21 340 r~ Koma-L;
#X floatatom 21 385 5 0 0 0 - - - 0;
#X floatatom 144 385 5 0 0 0 - - - 0;
#X obj 21 364 sigmund~ -stabletime 10 notes env;
#X floatatom 258 385 5 0 0 0 - - - 0;
#X floatatom 381 385 5 0 0 0 - - - 0;
#X obj 258 364 sigmund~ -stabletime 10 notes env;
#X obj 258 340 r~ Koma-R;
#X floatatom 495 385 5 0 0 0 - - - 0;
#X floatatom 618 385 5 0 0 0 - - - 0;
#X obj 495 364 sigmund~ -stabletime 10 notes env;
#X obj 100 340 adc~ 7 8;
#X obj 144 405 s 27-velocity;
#X obj 21 405 s 27-note;
#X obj 381 405 s 28-velocity;
#X obj 618 405 s 29-velocity;
#X obj 495 405 s 29-note;
#X obj 258 405 s 28-note;
#X obj 337 316 r 27-note;
#X obj 337 340 s 27-pitch;
#X obj 413 340 s 28-pitch;
#X obj 413 316 r 28-note;
#X obj 489 316 r 29-note;
#X obj 489 340 s 29-pitch;
#X obj 21 469 r~ street-mic-L;
#X obj 300 469 r~ street-mic-R;
#X floatatom 258 511 5 0 0 0 - - - 0;
#X floatatom 381 511 5 0 0 0 - - - 0;
#X obj 258 490 sigmund~ -stabletime 10 notes env;
#X floatatom 21 511 5 0 0 0 - - - 0;
#X floatatom 144 511 5 0 0 0 - - - 0;
#X obj 21 490 sigmund~ -stabletime 10 notes env;
#X floatatom 495 511 5 0 0 0 - - - 0;
#X floatatom 618 511 5 0 0 0 - - - 0;
#X obj 495 490 sigmund~ -stabletime 10 notes env;
#X obj 142 469 r~ Koma-L;
#X obj 221 469 r~ Koma-R;
#X obj 21 531 s 30-note;
#X obj 144 531 s 30-velocity;
#X obj 258 531 s 31-note;
#X obj 381 531 s 31-velocity;
#X obj 495 531 s 32-note;
#X obj 618 531 s 32-velocity;
#X obj 411 445 r 30-note;
#X obj 411 469 s 30-pitch;
#X obj 487 445 r 31-note;
#X obj 487 469 s 31-pitch;
#X obj 563 445 r 32-note;
#X obj 563 469 s 32-pitch;
#X text 334 300 KOMA & STREET MIC to LXR02;
#X obj 775 298 bp~ 5000 5;
#X obj 775 361 unpack f f f f;
#X obj 775 426 unpack f f f f;
#X obj 775 492 unpack f f f f;
#X obj 775 319 sigmund~ -npeak 3 tracks;
#X obj 775 340 route 0 1 2;
#X obj 949 298 bp~ 5000 5;
#X obj 949 361 unpack f f f f;
#X obj 949 426 unpack f f f f;
#X obj 949 492 unpack f f f f;
#X obj 949 319 sigmund~ -npeak 3 tracks;
#X obj 949 340 route 0 1 2;
#N canvas 302 320 477 316 pre-algo-1 0;
#X floatatom 26 113 9 0 0 0 - - - 0;
#X obj 197 133 sigmund~ -stabletime 15 notes;
#X obj 26 133 utility_oscillator;
#X obj 149 112 expr ($f1*20000)%127;
#X obj 26 92 inlet;
#X obj 149 91 inlet;
#X obj 110 154 outlet;
#X obj 197 154 outlet;
#X connect 0 0 2 0;
#X connect 1 0 6 0;
#X connect 2 0 1 0;
#X connect 3 0 2 2;
#X connect 3 0 7 0;
#X connect 4 0 0 0;
#X connect 5 0 3 0;
#X restore 775 382 pd pre-algo-1;
#N canvas 269 320 477 316 pre-algo-1 0;
#X floatatom 26 113 9 0 0 0 - - - 0;
#X obj 197 133 sigmund~ -stabletime 15 notes;
#X obj 26 133 utility_oscillator;
#X obj 149 112 expr ($f1*20000)%127;
#X obj 26 92 inlet;
#X obj 149 91 inlet;
#X obj 110 154 outlet;
#X obj 197 154 outlet;
#X connect 0 0 2 0;
#X connect 1 0 6 0;
#X connect 2 0 1 0;
#X connect 3 0 2 2;
#X connect 3 0 7 0;
#X connect 4 0 0 0;
#X connect 5 0 3 0;
#X restore 949 382 pd pre-algo-1;
#N canvas 269 320 477 316 pre-algo-1 0;
#X floatatom 26 113 9 0 0 0 - - - 0;
#X obj 197 133 sigmund~ -stabletime 15 notes;
#X obj 26 133 utility_oscillator;
#X obj 149 112 expr ($f1*20000)%127;
#X obj 26 92 inlet;
#X obj 149 91 inlet;
#X obj 110 154 outlet;
#X obj 197 154 outlet;
#X connect 0 0 2 0;
#X connect 1 0 6 0;
#X connect 2 0 1 0;
#X connect 3 0 2 2;
#X connect 3 0 7 0;
#X connect 4 0 0 0;
#X connect 5 0 3 0;
#X restore 949 447 pd pre-algo-1;
#N canvas 269 320 477 316 pre-algo-1 0;
#X floatatom 26 113 9 0 0 0 - - - 0;
#X obj 197 133 sigmund~ -stabletime 15 notes;
#X obj 26 133 utility_oscillator;
#X obj 149 112 expr ($f1*20000)%127;
#X obj 26 92 inlet;
#X obj 149 91 inlet;
#X obj 110 154 outlet;
#X obj 197 154 outlet;
#X connect 0 0 2 0;
#X connect 1 0 6 0;
#X connect 2 0 1 0;
#X connect 3 0 2 2;
#X connect 3 0 7 0;
#X connect 4 0 0 0;
#X connect 5 0 3 0;
#X restore 775 447 pd pre-algo-1;
#N canvas 269 320 477 316 pre-algo-1 0;
#X floatatom 26 113 9 0 0 0 - - - 0;
#X obj 197 133 sigmund~ -stabletime 15 notes;
#X obj 26 133 utility_oscillator;
#X obj 149 112 expr ($f1*20000)%127;
#X obj 26 92 inlet;
#X obj 149 91 inlet;
#X obj 110 154 outlet;
#X obj 197 154 outlet;
#X connect 0 0 2 0;
#X connect 1 0 6 0;
#X connect 2 0 1 0;
#X connect 3 0 2 2;
#X connect 3 0 7 0;
#X connect 4 0 0 0;
#X connect 5 0 3 0;
#X restore 775 513 pd pre-algo-1;
#N canvas 269 320 477 316 pre-algo-1 0;
#X floatatom 26 113 9 0 0 0 - - - 0;
#X obj 197 133 sigmund~ -stabletime 15 notes;
#X obj 26 133 utility_oscillator;
#X obj 149 112 expr ($f1*20000)%127;
#X obj 26 92 inlet;
#X obj 149 91 inlet;
#X obj 110 154 outlet;
#X obj 197 154 outlet;
#X connect 0 0 2 0;
#X connect 1 0 6 0;
#X connect 2 0 1 0;
#X connect 3 0 2 2;
#X connect 3 0 7 0;
#X connect 4 0 0 0;
#X connect 5 0 3 0;
#X restore 949 513 pd pre-algo-1;
#X obj 775 277 r~ LXR02-L;
#X obj 949 277 r~ LXR02-R;
#X obj 872 382 s 11-note;
#X obj 872 403 s 11-pitch;
#X obj 775 403 s 11-velocity;
#X obj 1046 382 s 14-note;
#X obj 872 468 s 12-pitch;
#X obj 872 534 s 13-pitch;
#X obj 872 447 s 12-note;
#X obj 872 513 s 13-note;
#X obj 775 534 s 13-velocity;
#N canvas 506 100 450 300 tenor_voice 0;
#X obj 89 26 inlet~;
#X obj 124 108 env~;
#X obj 40 162 outlet;
#X obj 120 186 outlet;
#X obj 120 162 expr ($f1-20)*2;
#X obj 40 108 bp~ 5000 10;
#X obj 40 132 sigmund~ -minpower 7 -stabletime 5 -vibrato 0.5 notes
;
#X connect 0 0 1 0;
#X connect 0 0 5 0;
#X connect 1 0 4 0;
#X connect 4 0 3 0;
#X connect 5 0 6 0;
#X connect 6 0 2 0;
#X restore 775 121 pd tenor_voice;
#N canvas 506 100 450 300 alto_voice 0;
#X obj 89 26 inlet~;
#X obj 130 108 env~;
#X obj 40 162 outlet;
#X obj 120 186 outlet;
#X obj 120 162 expr ($f1-20)*2;
#X floatatom 227 92 5 0 0 0 - - - 0;
#X obj 40 108 bp~ 20000 10;
#X obj 40 132 sigmund~ -minpower 7 -stabletime 15 -vibrato 0.5 notes
;
#X connect 0 0 1 0;
#X connect 0 0 6 0;
#X connect 1 0 4 0;
#X connect 1 0 5 0;
#X connect 4 0 3 0;
#X connect 6 0 7 0;
#X connect 7 0 2 0;
#X restore 1149 147 pd alto_voice;
#X obj 775 100 r~ Koma-L;
#X obj 844 100 r~ Koma-R;
#N canvas 506 100 450 300 tenor_voice 0;
#X obj 89 26 inlet~;
#X obj 124 108 env~;
#X obj 40 162 outlet;
#X obj 120 186 outlet;
#X obj 120 162 expr ($f1-20)*2;
#X obj 40 108 bp~ 5000 10;
#X obj 40 132 sigmund~ -minpower 7 -stabletime 5 -vibrato 0.5 notes
;
#X connect 0 0 1 0;
#X connect 0 0 5 0;
#X connect 1 0 4 0;
#X connect 4 0 3 0;
#X connect 5 0 6 0;
#X connect 6 0 2 0;
#X restore 879 121 pd tenor_voice;
#N canvas 506 100 450 300 alto_voice 0;
#X obj 89 26 inlet~;
#X obj 130 108 env~;
#X obj 40 162 outlet;
#X obj 120 186 outlet;
#X obj 120 162 expr ($f1-20)*2;
#X floatatom 227 92 5 0 0 0 - - - 0;
#X obj 40 108 bp~ 20000 10;
#X obj 40 132 sigmund~ -minpower 7 -stabletime 15 -vibrato 0.5 notes
;
#X connect 0 0 1 0;
#X connect 0 0 6 0;
#X connect 1 0 4 0;
#X connect 1 0 5 0;
#X connect 4 0 3 0;
#X connect 6 0 7 0;
#X connect 7 0 2 0;
#X restore 1253 147 pd alto_voice;
#X obj 775 142 s 1-note;
#X obj 765 163 s 1-velocity;
#X obj 869 163 s 3-velocity;
#X obj 879 142 s 3-note;
#N canvas 506 100 450 300 alto_voice 0;
#X obj 89 26 inlet~;
#X obj 124 108 env~;
#X obj 40 162 outlet;
#X obj 120 186 outlet;
#X obj 120 162 expr ($f1-20)*2;
#X obj 40 108 bp~ 5000 10;
#X obj 40 132 sigmund~ -minpower 7 -stabletime 5 -vibrato 0.5 notes
;
#X connect 0 0 1 0;
#X connect 0 0 5 0;
#X connect 1 0 4 0;
#X connect 4 0 3 0;
#X connect 5 0 6 0;
#X connect 6 0 2 0;
#X restore 775 184 pd alto_voice;
#N canvas 506 100 450 300 alto_voice 0;
#X obj 89 26 inlet~;
#X obj 124 108 env~;
#X obj 40 162 outlet;
#X obj 120 186 outlet;
#X obj 120 162 expr ($f1-20)*2;
#X obj 40 108 bp~ 5000 10;
#X obj 40 132 sigmund~ -minpower 7 -stabletime 5 -vibrato 0.5 notes
;
#X connect 0 0 1 0;
#X connect 0 0 5 0;
#X connect 1 0 4 0;
#X connect 4 0 3 0;
#X connect 5 0 6 0;
#X connect 6 0 2 0;
#X restore 879 184 pd alto_voice;
#X obj 775 205 s 2-note;
#X obj 765 226 s 2-velocity;
#X obj 879 205 s 4-note;
#X obj 869 226 s 4-velocity;
#X text 772 261 LXR02 to TG100 'bay 2';
#X text 772 84 KOMA to TG100 'bay 1a - percussion';
#X obj 1149 125 r~ street-mic-L;
#X obj 1260 125 r~ street-mic-R;
#X obj 1149 298 bp~ 5000 5;
#X obj 1149 361 unpack f f f f;
#X obj 1149 426 unpack f f f f;
#X obj 1149 492 unpack f f f f;
#X obj 1149 319 sigmund~ -npeak 3 tracks;
#X obj 1149 340 route 0 1 2;
#N canvas 269 320 477 316 pre-algo-1 0;
#X floatatom 26 113 9 0 0 0 - - - 0;
#X obj 197 133 sigmund~ -stabletime 15 notes;
#X obj 26 133 utility_oscillator;
#X obj 149 112 expr ($f1*20000)%127;
#X obj 26 92 inlet;
#X obj 149 91 inlet;
#X obj 110 154 outlet;
#X obj 197 154 outlet;
#X connect 0 0 2 0;
#X connect 1 0 6 0;
#X connect 2 0 1 0;
#X connect 3 0 2 2;
#X connect 3 0 7 0;
#X connect 4 0 0 0;
#X connect 5 0 3 0;
#X restore 1149 382 pd pre-algo-1;
#N canvas 269 320 477 316 pre-algo-1 0;
#X floatatom 26 113 9 0 0 0 - - - 0;
#X obj 197 133 sigmund~ -stabletime 15 notes;
#X obj 26 133 utility_oscillator;
#X obj 149 112 expr ($f1*20000)%127;
#X obj 26 92 inlet;
#X obj 149 91 inlet;
#X obj 110 154 outlet;
#X obj 197 154 outlet;
#X connect 0 0 2 0;
#X connect 1 0 6 0;
#X connect 2 0 1 0;
#X connect 3 0 2 2;
#X connect 3 0 7 0;
#X connect 4 0 0 0;
#X connect 5 0 3 0;
#X restore 1149 447 pd pre-algo-1;
#N canvas 269 320 477 316 pre-algo-1 0;
#X floatatom 26 113 9 0 0 0 - - - 0;
#X obj 197 133 sigmund~ -stabletime 15 notes;
#X obj 26 133 utility_oscillator;
#X obj 149 112 expr ($f1*20000)%127;
#X obj 26 92 inlet;
#X obj 149 91 inlet;
#X obj 110 154 outlet;
#X obj 197 154 outlet;
#X connect 0 0 2 0;
#X connect 1 0 6 0;
#X connect 2 0 1 0;
#X connect 3 0 2 2;
#X connect 3 0 7 0;
#X connect 4 0 0 0;
#X connect 5 0 3 0;
#X restore 1149 513 pd pre-algo-1;
#X obj 1149 277 r~ TG100-R;
#X obj 1225 277 r~ TG100-R;
#X obj 1046 403 s 14-pitch;
#X obj 949 403 s 14-velocity;
#X obj 1046 468 s 15-pitch;
#X obj 1046 447 s 15-note;
#X obj 949 468 s 15-velocity;
#X obj 949 534 s 16-velocity;
#X obj 1046 534 s 16-pitch;
#X obj 1046 513 s 16-note;
#X obj 1159 168 s 5-note;
#X obj 1149 189 s 5-velocity;
#X obj 1262 168 s 6-note;
#X obj 1252 189 s 6-velocity;
#X text 1147 261 TG-100 'bay 1c - feedback';
#X text 1147 109 STREET MIC to TG-100 'bay 1b';
#X text 277 43 INPUT SENDS;
#X obj 1246 382 s 7-note;
#X obj 1246 403 s 7-pitch;
#X obj 1149 403 s 7-velocity;
#X obj 1149 468 s 8-velocity;
#X obj 1246 468 s 8-pitch;
#X obj 1246 447 s 8-note;
#X obj 1149 534 s 9-velocity;
#X obj 1246 534 s 9-pitch;
#X obj 1246 513 s 9-note;
#X obj 775 468 s 12-velocity;
#N canvas 414 541 781 300 LXR_CCs 1;
#X restore 21 206 pd LXR_CCs;
#X connect 6 0 5 0;
#X connect 9 0 12 0;
#X connect 9 1 13 0;
#X connect 10 0 14 0;
#X connect 10 1 15 0;
#X connect 11 0 16 0;
#X connect 11 1 17 0;
#X connect 18 0 20 0;
#X connect 18 1 19 0;
#X connect 21 0 24 0;
#X connect 22 0 34 0;
#X connect 23 0 33 0;
#X connect 24 0 22 0;
#X connect 24 1 23 0;
#X connect 25 0 38 0;
#X connect 26 0 35 0;
#X connect 27 0 25 0;
#X connect 27 1 26 0;
#X connect 28 0 27 0;
#X connect 29 0 37 0;
#X connect 30 0 36 0;
#X connect 31 0 29 0;
#X connect 31 1 30 0;
#X connect 32 0 31 0;
#X connect 32 0 27 0;
#X connect 32 1 31 0;
#X connect 32 1 24 0;
#X connect 39 0 40 0;
#X connect 42 0 41 0;
#X connect 43 0 44 0;
#X connect 45 0 52 0;
#X connect 46 0 49 0;
#X connect 47 0 60 0;
#X connect 48 0 61 0;
#X connect 49 0 47 0;
#X connect 49 1 48 0;
#X connect 50 0 58 0;
#X connect 51 0 59 0;
#X connect 52 0 50 0;
#X connect 52 1 51 0;
#X connect 53 0 62 0;
#X connect 54 0 63 0;
#X connect 55 0 53 0;
#X connect 55 1 54 0;
#X connect 56 0 55 0;
#X connect 56 0 49 0;
#X connect 57 0 52 0;
#X connect 57 0 55 0;
#X connect 64 0 65 0;
#X connect 66 0 67 0;
#X connect 68 0 69 0;
#X connect 71 0 75 0;
#X connect 72 0 83 0;
#X connect 72 1 83 1;
#X connect 73 0 86 0;
#X connect 73 1 86 1;
#X connect 74 0 87 0;
#X connect 74 1 87 1;
#X connect 75 0 76 0;
#X connect 76 0 72 0;
#X connect 76 1 73 0;
#X connect 76 2 74 0;
#X connect 77 0 81 0;
#X connect 78 0 84 0;
#X connect 78 1 84 1;
#X connect 79 0 85 0;
#X connect 79 1 85 1;
#X connect 80 0 88 0;
#X connect 80 1 88 1;
#X connect 81 0 82 0;
#X connect 82 0 78 0;
#X connect 82 1 79 0;
#X connect 82 2 80 0;
#X connect 83 0 91 0;
#X connect 83 0 92 0;
#X connect 83 1 93 0;
#X connect 84 0 94 0;
#X connect 84 0 131 0;
#X connect 84 1 132 0;
#X connect 85 0 133 0;
#X connect 85 0 134 0;
#X connect 85 1 135 0;
#X connect 86 0 95 0;
#X connect 86 0 97 0;
#X connect 86 1 155 0;
#X connect 87 0 96 0;
#X connect 87 0 98 0;
#X connect 87 1 99 0;
#X connect 88 0 137 0;
#X connect 88 0 138 0;
#X connect 88 1 136 0;
#X connect 89 0 71 0;
#X connect 90 0 77 0;
#X connect 100 0 106 0;
#X connect 100 1 107 0;
#X connect 101 0 139 0;
#X connect 101 1 140 0;
#X connect 102 0 100 0;
#X connect 102 0 111 0;
#X connect 103 0 104 0;
#X connect 103 0 110 0;
#X connect 104 0 109 0;
#X connect 104 1 108 0;
#X connect 105 0 141 0;
#X connect 105 1 142 0;
#X connect 110 0 112 0;
#X connect 110 1 113 0;
#X connect 111 0 114 0;
#X connect 111 1 115 0;
#X connect 118 0 101 0;
#X connect 119 0 105 0;
#X connect 120 0 124 0;
#X connect 121 0 126 0;
#X connect 121 1 126 1;
#X connect 122 0 127 0;
#X connect 122 1 127 1;
#X connect 123 0 128 0;
#X connect 123 1 128 1;
#X connect 124 0 125 0;
#X connect 125 0 121 0;
#X connect 125 1 122 0;
#X connect 125 2 123 0;
#X connect 126 0 146 0;
#X connect 126 0 147 0;
#X connect 126 1 148 0;
#X connect 127 0 150 0;
#X connect 127 0 151 0;
#X connect 127 1 149 0;
#X connect 128 0 153 0;
#X connect 128 0 154 0;
#X connect 128 1 152 0;
#X connect 129 0 120 0;
#X connect 130 0 120 0;
