#N canvas 0 69 917 803 12;
#N canvas 643 572 450 300 random_int 0;
#X obj 81 71 bng 25 50 10 0 empty empty Generate\\\ Random\\\ Integer
29 16 1 20 #ffffff #00ff04 #000000;
#X obj 81 161 i;
#X obj 81 140 select;
#X obj 81 98 random 5;
#X floatatom 143 119 5 0 0 0 - - - 0;
#X obj 81 50 inlet;
#X obj 143 98 inlet;
#X obj 81 182 outlet;
#X obj 184 98 inlet;
#X obj 81 119 +;
#X connect 0 0 3 0;
#X connect 1 0 2 1;
#X connect 1 0 7 0;
#X connect 2 0 3 0;
#X connect 2 1 1 0;
#X connect 3 0 9 0;
#X connect 4 0 3 1;
#X connect 5 0 0 0;
#X connect 6 0 4 0;
#X connect 8 0 9 1;
#X connect 9 0 2 0;
#X restore 268 588 pd random_int;
#X obj 312 455 vsl 15 128 0 127 0 0 empty empty empty 0 -9 0 10 #fcfcfc
#000000 #000000 0 1;
#X obj 356 455 vsl 15 128 0 127 0 0 empty empty empty 0 -9 0 10 #fcfcfc
#000000 #000000 0 1;
#X obj 268 571 bng 15 250 50 0 empty empty empty 17 7 0 10 #fcfcfc
#000000 #000000;
#X obj 268 609 print;
#X obj 310 651 bng 15 250 50 0 empty empty empty 17 7 0 10 #fcfcfc
#000000 #000000;
#X obj 310 689 bng 15 250 50 0 empty empty empty 17 7 0 10 #fcfcfc
#000000 #000000;
#X obj 386 556 vsl 15 128 0 1000 0 0 empty empty Length 0 -9 1 10 #fcfcfc
#000000 #000000 0 1;
#N canvas 127 274 450 525 doctor_note_test 0;
#X obj 179 31 inlet;
#X obj 59 456 noteout;
#X msg 102 403 69 100 1;
#X msg 31 403 73 100 1;
#X msg 102 424 69 0 1;
#X msg 31 424 73 0 1;
#X obj 112 51 inlet;
#X obj 103 135 text define -k doctor-note-test;
#A set 73 100 \$1 \; 69 100 \$1 \; 69 0 \$1 \; 73 0 \$1 \; reset \;
;
#X msg 50 93 args \$1;
#X obj 50 51 loadbang;
#X msg 50 72 1;
#X msg 179 90 step;
#X msg 217 90 line 0;
#X obj 50 114 text sequence doctor-note-test;
#X text 47 380 Dr. Note Test v 0.1;
#X obj 179 69 metro 500;
#X obj 179 52 tgl 15 0 empty empty empty 17 7 0 10 #fcfcfc #000000
#000000 0 1;
#X obj 50 156 route list;
#X obj 117 177 bng 15 250 50 0 empty empty empty 17 7 0 10 #fcfcfc
#000000 #000000;
#X text 222 156 Edit test sequence here;
#X text 281 63 v 0.2;
#X obj 112 93 outlet;
#X obj 112 72 + 1;
#X obj 50 177 noteout;
#X connect 0 0 16 0;
#X connect 2 0 1 0;
#X connect 3 0 1 0;
#X connect 4 0 1 0;
#X connect 5 0 1 0;
#X connect 6 0 22 0;
#X connect 8 0 13 0;
#X connect 9 0 10 0;
#X connect 9 0 12 0;
#X connect 9 0 22 0;
#X connect 10 0 8 0;
#X connect 11 0 13 0;
#X connect 12 0 13 0;
#X connect 13 0 17 0;
#X connect 15 0 11 0;
#X connect 16 0 15 0;
#X connect 17 0 23 0;
#X connect 17 1 18 0;
#X connect 18 0 16 0;
#X connect 18 0 12 0;
#X connect 22 0 8 0;
#X connect 22 0 21 0;
#X restore 620 235 pd doctor_note_test;
#X obj 620 218 bng 15 250 50 0 empty empty empty 17 7 0 10 #fcfcfc
#000000 #000000;
#X obj 638 223 hradio 10 1 0 16 empty empty Channel 0 -8 1 10 #fcfcfc
#000000 #000000 0;
#X floatatom 759 235 5 1 16 0 - - - 0;
#X obj 688 150 hradio 10 1 0 16 empty empty Channel 0 -8 1 10 #fcfcfc
#000000 #000000 0;
#N canvas 701 68 450 300 mono_or_poly 0;
#X obj 348 158 ctlout;
#X msg 348 137 1 126 1;
#X obj 348 92 ctlout;
#X text 346 51 Poly mode;
#X text 346 117 Mono mode;
#X obj 98 71 inlet;
#X obj 165 155 inlet;
#X obj 165 176 + 1;
#X obj 98 218 pack f f f;
#X obj 165 197 outlet;
#X obj 149 113 t b b;
#X msg 149 134 1;
#X msg 181 134 126;
#X obj 98 134 t b b;
#X msg 130 155 127;
#X obj 278 226 loadbang;
#X msg 277 254 1;
#X msg 348 71 0 127 1;
#X msg 98 155 0;
#X obj 98 92 route poly mono;
#X obj 98 239 ctlout;
#X connect 1 0 0 0;
#X connect 5 0 19 0;
#X connect 6 0 7 0;
#X connect 7 0 8 2;
#X connect 7 0 9 0;
#X connect 8 0 20 0;
#X connect 10 0 11 0;
#X connect 10 1 12 0;
#X connect 11 0 8 0;
#X connect 12 0 8 1;
#X connect 13 0 18 0;
#X connect 13 1 14 0;
#X connect 14 0 8 1;
#X connect 15 0 16 0;
#X connect 16 0 9 0;
#X connect 17 0 2 0;
#X connect 18 0 8 0;
#X connect 19 0 13 0;
#X connect 19 1 10 0;
#X restore 611 162 pd mono_or_poly;
#X msg 611 141 mono;
#X msg 649 141 poly;
#X floatatom 722 163 5 0 0 0 - - - 0;
#X floatatom 319 321 5 0 0 0 - - - 0;
#X obj 201 187 vsl 15 128 0 127 0 0 empty empty Volume -20 -9 0 10
#fcfcfc #000000 #000000 0 1;
#N canvas 638 197 450 453 volume_adjust 0;
#X obj 144 233 + 1;
#X msg 118 293 \$1 11 \$2;
#X listbox 118 314 12 0 0 0 - - - 0;
#X obj 118 272 pack f f;
#X obj 118 334 unpack f f f;
#X obj 118 355 ctlout;
#X text 227 200 Multi-channel Volume slider;
#X obj 156 184 inlet;
#X obj 99 176 inlet;
#X obj 288 318 outlet;
#X obj 288 273 loadbang;
#X msg 288 297 1;
#X connect 0 0 9 0;
#X connect 0 0 3 1;
#X connect 1 0 2 0;
#X connect 2 0 4 0;
#X connect 3 0 1 0;
#X connect 4 0 5 0;
#X connect 4 1 5 1;
#X connect 4 2 5 2;
#X connect 7 0 0 0;
#X connect 8 0 3 0;
#X connect 10 0 11 0;
#X connect 11 0 9 0;
#X restore 201 320 pd volume_adjust;
#X obj 625 298 hradio 10 1 0 16 empty empty Channel 0 -8 1 10 #fcfcfc
#000000 #000000 0;
#N canvas 326 357 450 300 all_notes_off 0;
#X obj 128 98 pack f f f;
#X obj 251 31 loadbang;
#X msg 251 55 1;
#X obj 254 122 outlet;
#X obj 189 23 inlet;
#X obj 193 48 + 1;
#X obj 115 40 t b b;
#X msg 136 71 123;
#X obj 134 10 inlet;
#X msg 89 67 0;
#X obj 128 119 ctlout;
#X connect 0 0 10 0;
#X connect 1 0 2 0;
#X connect 2 0 3 0;
#X connect 2 0 0 2;
#X connect 4 0 5 0;
#X connect 5 0 0 2;
#X connect 5 0 3 0;
#X connect 6 0 9 0;
#X connect 6 1 7 0;
#X connect 7 0 0 1;
#X connect 8 0 6 0;
#X connect 9 0 0 0;
#X restore 605 310 pd all_notes_off;
#X floatatom 723 311 5 0 0 0 - - - 0;
#X obj 605 293 bng 15 250 50 0 empty empty empty 17 7 0 10 #fcfcfc
#000000 #000000;
#X obj 162 578 env~;
#X floatatom 162 599 5 0 0 0 - - - 0;
#X obj 108 557 adc~ 7 8;
#X obj 170 445 vsl 15 128 0 30 0 0 empty empty empty 0 -9 0 10 #fcfcfc
#000000 #000000 0 1;
#X obj 108 578 *~;
#X obj 135 578 *~;
#X obj 108 599 dac~;
#X text 52 535 Input from R24;
#X obj 331 734 print;
#X obj 331 689 list append;
#X obj 276 706 noteout;
#X msg 331 710 \$1 0 \$3;
#X obj 310 630 pack f f f;
#X msg 310 609 \$1 100 1;
#X floatatom 219 341 5 0 0 0 - - - 0;
#X obj 115 207 vsl 15 128 0 127 0 0 empty empty Reverb\\\ Send -20
-9 0 10 #fcfcfc #000000 #000000 0 1;
#N canvas 667 251 450 453 reverb_send 0;
#X obj 144 233 + 1;
#X listbox 118 314 12 0 0 0 - - - 0;
#X obj 118 272 pack f f;
#X obj 118 334 unpack f f f;
#X obj 118 355 ctlout;
#X text 227 200 Multi-channel Volume slider;
#X obj 156 184 inlet;
#X obj 99 176 inlet;
#X obj 288 318 outlet;
#X obj 288 273 loadbang;
#X msg 288 297 1;
#X msg 118 293 \$1 91 \$2;
#X connect 0 0 8 0;
#X connect 0 0 2 1;
#X connect 1 0 3 0;
#X connect 2 0 11 0;
#X connect 3 0 4 0;
#X connect 3 1 4 1;
#X connect 3 2 4 2;
#X connect 6 0 0 0;
#X connect 7 0 2 0;
#X connect 9 0 10 0;
#X connect 10 0 8 0;
#X connect 11 0 1 0;
#X restore 115 340 pd reverb_send;
#X obj 310 668 pipe;
#N canvas 75 300 570 547 note_stream 0;
#X floatatom 393 149 5 0 0 0 - - - 0;
#X obj 393 169 pipe 1000;
#X obj 269 44 inlet;
#X obj 269 68 unpack f f f;
#X obj 291 245 noteout;
#X obj 253 192 pack f f f;
#X obj 231 220 print;
#X obj 449 122 inlet;
#X msg 431 234 \$1 0;
#X connect 0 0 1 0;
#X connect 1 0 8 0;
#X connect 2 0 3 0;
#X connect 3 0 5 0;
#X connect 3 0 0 0;
#X connect 3 1 5 1;
#X connect 3 2 5 2;
#X connect 5 0 6 0;
#X connect 5 0 4 0;
#X connect 7 0 1 1;
#X connect 8 0 5 0;
#X restore 722 542 pd note_stream;
#X obj 817 409 vsl 15 128 0 1000 0 0 empty empty Length 0 -9 1 10 #fcfcfc
#000000 #000000 0 1;
#X obj 574 509 hradio 10 1 0 16 empty empty Channel 0 -8 1 10 #fcfcfc
#000000 #000000 0;
#X obj 557 504 bng 15 250 50 0 empty empty empty 17 7 0 10 #fcfcfc
#000000 #000000;
#X floatatom 731 522 5 0 0 0 - - - 0;
#N canvas 58 518 450 300 random_note_w_gamelan 0;
#X obj 95 109 random 128;
#X obj 171 109 random 128;
#X floatatom 247 110 5 0 0 0 - - - 0;
#X obj 95 92 bng 15 250 50 0 empty empty empty 17 7 0 10 #fcfcfc #000000
#000000;
#N canvas 498 413 450 229 gamelan 0;
#X msg 37 98 \$1 \$2 \$3;
#X obj 37 75 pack f f f;
#X obj 78 119 list append;
#X obj 37 119 t l b;
#X msg 78 140 \$1 0 \$3;
#X text 119 92 GENERALIZED GAMELAN MONOPHONIC MIDI ROUTER;
#X obj 37 12 inlet note;
#X obj 70 33 inlet vel;
#X obj 104 54 inlet channel;
#X obj 37 182 outlet noteon;
#X obj 78 161 outlet noteoff;
#X connect 0 0 3 0;
#X connect 1 0 0 0;
#X connect 2 0 4 0;
#X connect 3 0 2 1;
#X connect 3 0 9 0;
#X connect 3 1 2 0;
#X connect 4 0 10 0;
#X connect 6 0 1 0;
#X connect 7 0 1 1;
#X connect 8 0 1 2;
#X restore 95 130 pd gamelan;
#X obj 247 89 + 1;
#X obj 104 202 noteout;
#X obj 206 165 noteout;
#X text 92 226 Random Note Sequence;
#X obj 256 48 inlet;
#X obj 37 37 inlet;
#X obj 242 254 outlet;
#X obj 322 72 loadbang;
#X msg 322 96 1;
#X obj 177 206 print;
#X obj 341 160 outlet;
#X connect 0 0 4 0;
#X connect 1 0 4 1;
#X connect 2 0 4 2;
#X connect 2 0 11 0;
#X connect 3 0 0 0;
#X connect 3 0 1 0;
#X connect 3 0 2 0;
#X connect 4 0 6 0;
#X connect 4 0 14 0;
#X connect 4 0 15 0;
#X connect 4 1 7 0;
#X connect 4 1 14 0;
#X connect 5 0 2 0;
#X connect 9 0 5 0;
#X connect 10 0 3 0;
#X connect 12 0 13 0;
#X connect 13 0 2 0;
#X restore 557 521 pd random_note_w_gamelan;
#N canvas 75 300 570 547 note_stream 0;
#X floatatom 393 149 5 0 0 0 - - - 0;
#X obj 393 169 pipe 1000;
#X obj 269 44 inlet;
#X obj 269 68 unpack f f f;
#X obj 291 245 noteout;
#X obj 253 192 pack f f f;
#X obj 231 220 print;
#X obj 449 122 inlet;
#X msg 431 234 \$1 0;
#X connect 0 0 1 0;
#X connect 1 0 8 0;
#X connect 2 0 3 0;
#X connect 3 0 5 0;
#X connect 3 0 0 0;
#X connect 3 1 5 1;
#X connect 3 2 5 2;
#X connect 5 0 6 0;
#X connect 5 0 4 0;
#X connect 7 0 1 1;
#X connect 8 0 5 0;
#X restore 329 299 pd note_stream;
#X obj 424 166 vsl 15 128 0 1000 0 0 empty empty Length 0 -9 1 10 #fcfcfc
#000000 #000000 0 1;
#X obj 254 245 hradio 10 1 0 16 empty empty Channel 0 -8 1 10 #fcfcfc
#000000 #000000 0;
#X floatatom 385 279 5 0 0 0 - - - 0;
#N canvas 123 204 450 300 receive_from_sigmund 0;
#X obj 74 40 inlet;
#X obj 160 69 inlet;
#X floatatom 74 64 5 0 0 0 - - - 0;
#X obj 217 96 loadbang;
#X msg 217 120 1;
#X obj 220 187 outlet;
#X obj 159 113 + 1;
#X obj 74 127 pack f f f;
#X obj 123 38 inlet;
#X obj 90 164 outlet;
#X connect 0 0 2 0;
#X connect 1 0 6 0;
#X connect 2 0 7 0;
#X connect 3 0 4 0;
#X connect 4 0 5 0;
#X connect 4 0 7 2;
#X connect 6 0 5 0;
#X connect 6 0 7 2;
#X connect 7 0 9 0;
#X connect 8 0 7 1;
#X restore 218 278 pd receive_from_sigmund;
#X obj 350 257 r channel;
#X obj 254 257 s channel;
#X obj 218 299 r channel;
#X obj 132 319 r channel;
#X obj 491 443 env~;
#X floatatom 491 464 5 0 0 0 - - - 0;
#X obj 499 310 vsl 15 128 0 30 0 0 empty empty empty 0 -9 0 10 #fcfcfc
#000000 #000000 0 1;
#X obj 437 443 *~;
#X text 381 400 Input from R24;
#X obj 437 422 adc~ 6;
#X obj 438 503 dac~;
#X obj 297 127 pgmout;
#X msg 277 33 0 1;
#X msg 353 33 47 1;
#X text 346 126 pgmut takes program changes;
#X connect 0 0 4 0;
#X connect 0 0 37 0;
#X connect 1 0 0 1;
#X connect 2 0 0 2;
#X connect 3 0 0 0;
#X connect 5 0 41 0;
#X connect 6 0 33 0;
#X connect 7 0 41 1;
#X connect 8 0 11 0;
#X connect 9 0 8 1;
#X connect 10 0 8 0;
#X connect 12 0 13 1;
#X connect 13 0 16 0;
#X connect 14 0 13 0;
#X connect 15 0 13 0;
#X connect 18 0 19 0;
#X connect 19 0 17 0;
#X connect 20 0 21 1;
#X connect 21 0 22 0;
#X connect 23 0 21 0;
#X connect 24 0 25 0;
#X connect 26 0 28 0;
#X connect 26 1 24 0;
#X connect 26 1 29 0;
#X connect 27 0 28 1;
#X connect 27 0 29 1;
#X connect 28 0 30 0;
#X connect 29 0 30 1;
#X connect 33 0 35 0;
#X connect 35 0 34 0;
#X connect 35 0 32 0;
#X connect 36 0 34 0;
#X connect 36 0 5 0;
#X connect 36 0 33 1;
#X connect 37 0 36 0;
#X connect 39 0 40 0;
#X connect 40 0 38 0;
#X connect 41 0 6 0;
#X connect 43 0 42 1;
#X connect 44 0 47 1;
#X connect 45 0 47 0;
#X connect 47 0 46 0;
#X connect 47 1 42 0;
#X connect 49 0 48 1;
#X connect 50 0 54 0;
#X connect 52 0 48 0;
#X connect 52 1 51 0;
#X connect 53 0 52 2;
#X connect 55 0 19 1;
#X connect 56 0 40 1;
#X connect 57 0 58 0;
#X connect 59 0 60 1;
#X connect 60 0 57 0;
#X connect 60 0 63 0;
#X connect 62 0 60 0;
#X connect 65 0 64 0;
#X connect 66 0 64 0;
