#N canvas 197 163 1243 633 12;
#X obj 488 299 unpack f f f;
#X obj 488 323 noteout;
#X msg 559 257 69 100 1;
#X msg 488 257 73 100 1;
#X msg 559 278 69 0 1;
#X msg 488 278 73 0 1;
#X obj 38 363 random 128;
#X obj 114 363 random 128;
#X floatatom 190 364 5 0 0 0 - - - 0;
#X obj 38 346 bng 15 250 50 0 empty empty empty 17 7 0 10 #fcfcfc #000000
#000000;
#N canvas 235 362 450 229 gamelan 0;
#X msg 37 98 \$1 \$2 \$3;
#X obj 37 75 pack f f f;
#X obj 78 119 list append;
#X obj 37 119 t l b;
#X msg 78 140 \$1 0 \$3;
#X text 119 92 GENERALIZED GAMELAN MONOPHONIC MIDI ROUTER;
#X obj 37 12 inlet note;
#X obj 70 33 inlet vel;
#X obj 104 54 inlet channel;
#X obj 37 182 outlet noteon;
#X obj 78 161 outlet noteoff;
#X connect 0 0 3 0;
#X connect 1 0 0 0;
#X connect 2 0 4 0;
#X connect 3 0 2 1;
#X connect 3 0 9 0;
#X connect 3 1 2 0;
#X connect 4 0 10 0;
#X connect 6 0 1 0;
#X connect 7 0 1 1;
#X connect 8 0 1 2;
#X restore 38 384 pd gamelan;
#X text 28 15 implemented modules;
#N canvas 274 347 450 229 gamelan 0;
#X msg 37 98 \$1 \$2 \$3;
#X obj 37 75 pack f f f;
#X obj 78 119 list append;
#X obj 37 119 t l b;
#X msg 78 140 \$1 0 \$3;
#X text 119 92 GENERALIZED GAMELAN MONOPHONIC MIDI ROUTER;
#X obj 37 12 inlet note;
#X obj 70 33 inlet vel;
#X obj 104 54 inlet channel;
#X obj 37 182 outlet noteon;
#X obj 78 161 outlet noteoff;
#X connect 0 0 3 0;
#X connect 1 0 0 0;
#X connect 2 0 4 0;
#X connect 3 0 2 1;
#X connect 3 0 9 0;
#X connect 3 1 2 0;
#X connect 4 0 10 0;
#X connect 6 0 1 0;
#X connect 7 0 1 1;
#X connect 8 0 1 2;
#X restore 31 31 pd gamelan;
#X obj 706 424 unpack f f f;
#X obj 706 445 ctlout;
#X msg 706 403 0 120 1;
#X obj 943 374 unpack f f f;
#X obj 943 395 ctlout;
#X msg 943 353 1 126 1;
#X text 941 333 Mono mode?;
#X obj 1056 378 unpack f f f;
#X obj 1056 399 ctlout;
#X msg 1056 357 1 127 1;
#X text 1054 337 Poly mode?;
#X obj 328 363 + 1;
#X msg 310 426 \$1 11 \$2;
#X obj 328 384 t b f;
#X listbox 310 447 12 0 0 0 - - - 0;
#X obj 310 405 pack f f;
#X obj 328 201 vradio 10 1 0 16 empty empty Channel 0 -8 1 10 #fcfcfc
#000000 #000000 0;
#X obj 310 272 vsl 15 128 0 127 0 0 empty empty Volume -20 -9 0 10
#fcfcfc #000000 #000000 0 1;
#X obj 310 467 unpack f f f;
#X obj 310 488 ctlout;
#X text 485 241 Random Note Testing;
#X obj 190 343 + 1;
#N canvas 643 572 450 300 random_int 0;
#X obj 81 71 bng 25 50 10 0 empty empty Generate\\\ Random\\\ Integer
29 16 1 20 #ffffff #00ff04 #000000;
#X obj 81 161 i;
#X obj 81 140 select;
#X obj 81 98 random 5;
#X floatatom 143 119 5 0 0 0 - - - 0;
#X obj 81 50 inlet;
#X obj 143 98 inlet;
#X obj 81 182 outlet;
#X obj 184 98 inlet;
#X obj 81 119 +;
#X connect 0 0 3 0;
#X connect 1 0 2 1;
#X connect 1 0 7 0;
#X connect 2 0 3 0;
#X connect 2 1 1 0;
#X connect 3 0 9 0;
#X connect 4 0 3 1;
#X connect 5 0 0 0;
#X connect 6 0 4 0;
#X connect 8 0 9 1;
#X connect 9 0 2 0;
#X restore 154 160 pd random_int;
#X obj 198 27 vsl 15 128 0 127 0 0 empty empty empty 0 -9 0 10 #fcfcfc
#000000 #000000 0 1;
#X obj 242 27 vsl 15 128 0 127 0 0 empty empty empty 0 -9 0 10 #fcfcfc
#000000 #000000 0 1;
#X obj 154 143 bng 15 250 50 0 empty empty empty 17 7 0 10 #fcfcfc
#000000 #000000;
#X obj 154 181 print;
#X text 703 366 All notes off All channels?;
#X obj 709 312 unpack f f f;
#X obj 709 333 ctlout;
#X msg 709 291 0 123 1;
#X text 706 254 All notes off this channel?;
#N canvas 643 572 450 300 random_int 0;
#X obj 81 71 bng 25 50 10 0 empty empty Generate\\\ Random\\\ Integer
29 16 1 20 #ffffff #00ff04 #000000;
#X obj 81 161 i;
#X obj 81 140 select;
#X obj 81 98 random 5;
#X floatatom 143 119 5 0 0 0 - - - 0;
#X obj 81 50 inlet;
#X obj 143 98 inlet;
#X obj 81 182 outlet;
#X obj 184 98 inlet;
#X obj 81 119 +;
#X connect 0 0 3 0;
#X connect 1 0 2 1;
#X connect 1 0 7 0;
#X connect 2 0 3 0;
#X connect 2 1 1 0;
#X connect 3 0 9 0;
#X connect 4 0 3 1;
#X connect 5 0 0 0;
#X connect 6 0 4 0;
#X connect 8 0 9 1;
#X connect 9 0 2 0;
#X restore 31 52 pd random_int;
#X obj 47 405 unpack f f f;
#X obj 114 384 unpack f f f;
#X obj 504 419 noteout;
#X msg 547 366 69 100 1;
#X msg 476 366 73 100 1;
#X msg 547 387 69 0 1;
#X msg 476 387 73 0 1;
#X text 481 345 does this work?;
#X obj 47 426 noteout;
#X obj 149 405 noteout;
#X obj 55 331 hradio 10 1 0 16 empty empty Channel 0 -8 1 10 #fcfcfc
#000000 #000000 0;
#X text 35 450 Random Note Sequence;
#X text 309 522 Multi-channel Volume slider;
#X connect 0 0 1 0;
#X connect 0 1 1 1;
#X connect 0 2 1 2;
#X connect 2 0 0 0;
#X connect 3 0 0 0;
#X connect 4 0 0 0;
#X connect 5 0 0 0;
#X connect 6 0 10 0;
#X connect 7 0 10 1;
#X connect 8 0 10 2;
#X connect 9 0 6 0;
#X connect 9 0 7 0;
#X connect 9 0 8 0;
#X connect 10 0 46 0;
#X connect 10 1 47 0;
#X connect 13 0 14 0;
#X connect 13 1 14 1;
#X connect 13 2 14 2;
#X connect 15 0 13 0;
#X connect 16 0 17 0;
#X connect 16 1 17 1;
#X connect 16 2 17 2;
#X connect 18 0 16 0;
#X connect 20 0 21 0;
#X connect 20 1 21 1;
#X connect 20 2 21 2;
#X connect 22 0 20 0;
#X connect 24 0 26 0;
#X connect 25 0 27 0;
#X connect 26 0 28 0;
#X connect 26 1 28 1;
#X connect 27 0 31 0;
#X connect 28 0 25 0;
#X connect 29 0 24 0;
#X connect 30 0 28 0;
#X connect 31 0 32 0;
#X connect 31 1 32 1;
#X connect 31 2 32 2;
#X connect 34 0 8 0;
#X connect 35 0 39 0;
#X connect 36 0 35 1;
#X connect 37 0 35 2;
#X connect 38 0 35 0;
#X connect 41 0 42 0;
#X connect 41 1 42 1;
#X connect 41 2 42 2;
#X connect 43 0 41 0;
#X connect 46 0 54 0;
#X connect 46 1 54 1;
#X connect 46 2 54 2;
#X connect 47 0 55 0;
#X connect 47 1 55 1;
#X connect 47 2 55 2;
#X connect 49 0 48 0;
#X connect 50 0 48 0;
#X connect 51 0 48 0;
#X connect 52 0 48 0;
#X connect 56 0 34 0;
