#N canvas 739 528 450 208 12;
#N canvas 326 357 450 300 all_notes_off 0;
#X obj 128 98 pack f f f;
#X obj 189 23 inlet;
#X obj 115 40 t b b;
#X msg 136 71 123;
#X obj 134 10 inlet;
#X msg 89 67 0;
#X obj 128 119 ctlout;
#X connect 0 0 6 0;
#X connect 1 0 0 2;
#X connect 2 0 5 0;
#X connect 2 1 3 0;
#X connect 3 0 0 1;
#X connect 4 0 2 0;
#X connect 5 0 0 0;
#X restore 101 79 pd all_notes_off;
#X obj 102 117 bng 18 250 50 0 empty empty empty 17 7 0 10 #fcfcfc
#000000 #000000;
#N canvas 701 68 450 300 mono_or_poly 0;
#X obj 348 158 ctlout;
#X msg 348 137 1 126 1;
#X obj 348 92 ctlout;
#X text 346 51 Poly mode;
#X text 346 117 Mono mode;
#X obj 98 71 inlet;
#X obj 235 145 inlet;
#X obj 98 218 pack f f f;
#X obj 149 113 t b b;
#X msg 149 134 1;
#X msg 181 134 126;
#X obj 98 134 t b b;
#X msg 130 155 127;
#X msg 348 71 0 127 1;
#X msg 98 155 0;
#X obj 98 92 route poly mono;
#X obj 98 239 ctlout;
#X connect 1 0 0 0;
#X connect 5 0 15 0;
#X connect 6 0 7 2;
#X connect 7 0 16 0;
#X connect 8 0 9 0;
#X connect 8 1 10 0;
#X connect 9 0 7 0;
#X connect 10 0 7 1;
#X connect 11 0 14 0;
#X connect 11 1 12 0;
#X connect 12 0 7 1;
#X connect 13 0 2 0;
#X connect 14 0 7 0;
#X connect 15 0 11 0;
#X connect 15 1 8 0;
#X restore 170 160 pd mono_or_poly;
#X msg 170 139 mono;
#X msg 208 139 poly;
#X obj 210 37 loadbang;
#X obj 210 58 f \$1;
#X obj 172 117 bng 18 250 50 0 empty empty empty 17 7 0 10 #fcfcfc
#000000 #000000;
#X obj 208 117 bng 18 250 50 0 empty empty empty 17 7 0 10 #fcfcfc
#000000 #000000;
#X floatatom 126 117 5 0 0 0 - - - 0;
#X obj 99 58 r all_notes_off;
#X connect 1 0 0 0;
#X connect 3 0 2 0;
#X connect 4 0 2 0;
#X connect 5 0 6 0;
#X connect 6 0 2 1;
#X connect 6 0 0 1;
#X connect 6 0 9 0;
#X connect 7 0 3 0;
#X connect 8 0 4 0;
#X connect 10 0 0 0;
#X coords 0 -1 1 1 137 37 1 100 100;
