#N canvas 572 169 450 300 12;
#N canvas 179 204 137 80 pgm_send 0;
#X obj 5 3 loadbang;
#X obj 67 3 inlet;
#X obj 5 45 pgmout;
#X obj 5 24 pack \$2 \$1;
#X connect 0 0 3 0;
#X connect 1 0 3 0;
#X connect 3 0 2 0;
#X restore 157 158 pd pgm_send \$1 \$2;
#X obj 157 57 r \$1-note;
#X obj 226 57 r \$1-velocity;
#X floatatom 141 119 5 0 0 0 - - - 0;
#X obj 157 137 spigot;
#X obj 141 102 tgl 15 0 empty empty empty 17 7 0 10 #fcfcfc #000000
#000000 0 1;
#X floatatom 102 119 5 0 0 0 - - - 0;
#X obj 95 57 loadbang;
#X obj 95 78 f \$2;
#X obj 157 79 expr (($f1+$f2)+$f3)%128;
#X floatatom 180 119 5 0 0 0 - - - 0;
#X connect 1 0 9 0;
#X connect 2 0 9 1;
#X connect 3 0 4 0;
#X connect 4 0 0 0;
#X connect 5 0 4 1;
#X connect 7 0 8 0;
#X connect 8 0 6 0;
#X connect 9 0 3 0;
#X connect 10 0 9 2;
#X coords 0 -1 1 1 137 39 2 100 100;
