#N canvas 20 25 1215 695 12;
#X obj 275 45 adc~ 1;
#X obj 289 159 route 0 1 2 3;
#X obj 676 513 dac~;
#X obj 289 117 *~;
#X obj 289 66 lop~;
#X obj 326 50 hsl 128 15 0 10000 0 0 empty empty Lowpass\ Cutoff -2
-8 0 10 #fcfcfc #000000 #000000 0 1;
#X floatatom 323 67 5 0 0 0 - - - 0;
#X obj 289 138 sigmund~ -maxfreq 15000 -npeak 4 tracks notes;
#N canvas 384 227 760 540 old_guy 0;
#X floatatom 122 220 5 0 0 0 - - - 0;
#X obj 269 96 sig~;
#X obj 269 120 lop~;
#X obj 269 144 osc~;
#X obj 312 163 hsl 128 15 0.1 300 0 0 empty empty Portamento -2 -8
0 10 #fcfcfc #000000 #000000 0 1;
#X obj 299 253 *~;
#X obj 269 45 unpack f f f;
#X obj 312 207 hsl 128 15 0 2 0 0 empty empty Volume -2 -8 1 10 #fcfcfc
#000000 #000000 0 1;
#X floatatom 350 66 5 0 0 0 - - - 0;
#X obj 269 168 *~;
#X obj 199 99 *~ 10;
#X obj 199 120 lop~ 2;
#X obj 434 88 int;
#X obj 350 88 select 1;
#X obj 412 88 bng 15 250 50 0 empty empty empty 17 7 0 10 #fcfcfc #000000
#000000;
#X floatatom 434 109 5 0 0 0 - - - 0;
#X obj 461 88 + 1;
#X floatatom 82 220 5 0 0 0 - - - 0;
#X obj 229 168 ftom;
#X floatatom 20 225 5 0 0 0 - - - 0;
#X obj 153 157 snapshot~;
#X obj 151 113 bng 15 250 50 0 empty empty empty 17 7 0 10 #fcfcfc
#000000 #000000;
#X obj 20 248 * 500;
#X obj 221 272 mod 128;
#X floatatom 221 296 5 0 0 0 - - - 0;
#X floatatom 81 352 5 0 0 0 - - - 0;
#X obj 83 284 mod 128;
#X obj 503 439 noteout;
#X floatatom 542 398 5 0 0 0 - - - 0;
#X floatatom 565 418 5 0 0 0 - - - 0;
#X floatatom 503 395 5 0 0 0 - - - 0;
#X obj 299 274 sigmund~ -maxfreq 15000 -npeak 1 tracks notes;
#X obj 503 418 mod 127;
#X obj 581 397 + 1;
#X obj 542 385 hradio 10 1 0 16 empty empty Channel 0 -8 1 10 #fcfcfc
#000000 #000000 0;
#X obj 255 381 osc~;
#X obj 333 381 *~;
#X obj 332 427 dac~;
#X obj 357 328 *~ 0.25;
#X connect 0 0 1 0;
#X connect 0 0 18 0;
#X connect 0 0 35 0;
#X connect 1 0 2 0;
#X connect 2 0 3 0;
#X connect 3 0 9 0;
#X connect 4 0 2 1;
#X connect 5 0 31 0;
#X connect 6 0 0 0;
#X connect 6 1 10 0;
#X connect 6 2 8 0;
#X connect 7 0 5 1;
#X connect 7 0 38 0;
#X connect 8 0 13 0;
#X connect 9 0 5 0;
#X connect 10 0 11 0;
#X connect 11 0 9 1;
#X connect 11 0 20 0;
#X connect 12 0 15 0;
#X connect 12 0 16 0;
#X connect 13 0 14 0;
#X connect 14 0 12 0;
#X connect 14 0 21 0;
#X connect 16 0 12 1;
#X connect 17 0 26 0;
#X connect 18 0 17 0;
#X connect 19 0 22 0;
#X connect 20 0 19 0;
#X connect 21 0 20 0;
#X connect 22 0 23 0;
#X connect 23 0 24 0;
#X connect 24 0 28 0;
#X connect 26 0 25 0;
#X connect 28 0 27 1;
#X connect 29 0 27 2;
#X connect 30 0 32 0;
#X connect 31 1 30 0;
#X connect 32 0 27 0;
#X connect 33 0 29 0;
#X connect 34 0 33 0;
#X connect 35 0 36 0;
#X connect 36 0 37 0;
#X connect 36 0 37 1;
#X connect 38 0 36 1;
#X restore 893 513 pd old_guy;
#X obj 676 492 *~ 1;
#X obj 701 359 vsl 15 128 0 1 0 0 empty empty master\ volume 0 -9 0
10 #fcfcfc #000000 #000000 0 1;
#X obj 310 100 hsl 128 15 0 10 0 0 empty empty mic\ volume -2 -8 0
10 #fcfcfc #000000 #000000 0 1;
#N canvas 121 140 1319 622 basic_sine 1;
#X obj 782 449 outlet~;
#X obj 165 47 inlet;
#X obj 165 138 unpack f f f;
#X obj 165 162 sig~;
#X obj 165 186 lop~;
#X obj 165 210 osc~;
#X obj 165 234 *~;
#X obj 165 258 *~;
#X obj 202 186 hsl 128 15 0.2 300 0 0 empty empty Portamento -2 -8
0 10 #fcfcfc #000000 #000000 0 1;
#X obj 241 216 hsl 128 15 0 50 0 0 empty empty Gain -2 -8 1 10 #fcfcfc
#000000 #000000 0 1;
#X obj 199 232 *~;
#X obj 199 253 lop~;
#X text 24 303 Incoming Sine;
#X floatatom 238 263 5 0 0 0 - - - 0;
#X obj 238 285 vsl 15 128 0 2 0 0 empty empty empty 0 -9 0 10 #fcfcfc
#000000 #000000 0 1;
#X floatatom 277 263 5 0 0 0 - - - 0;
#X obj 277 285 vsl 15 128 0 200 0 0 empty empty empty 0 -9 0 10 #fcfcfc
#000000 #000000 0 1;
#X obj 199 277 env~;
#X obj 241 246 hsl 128 15 0 1 0 0 empty empty Volume -2 -8 1 10 #fcfcfc
#000000 #000000 0 1;
#X obj 507 135 unpack f f f;
#X obj 507 159 sig~;
#X obj 507 183 lop~;
#X obj 507 207 osc~;
#X obj 507 231 *~;
#X obj 507 255 *~;
#X obj 544 183 hsl 128 15 0.2 300 0 0 empty empty Portamento -2 -8
0 10 #fcfcfc #000000 #000000 0 1;
#X obj 583 213 hsl 128 15 0 50 0 0 empty empty Gain -2 -8 1 10 #fcfcfc
#000000 #000000 0 1;
#X obj 541 229 *~;
#X obj 541 250 lop~;
#X text 366 300 Incoming Sine;
#X floatatom 580 260 5 0 0 0 - - - 0;
#X obj 580 282 vsl 15 128 0 2 0 0 empty empty empty 0 -9 0 10 #fcfcfc
#000000 #000000 0 1;
#X floatatom 619 260 5 0 0 0 - - - 0;
#X obj 619 282 vsl 15 128 0 200 0 0 empty empty empty 0 -9 0 10 #fcfcfc
#000000 #000000 0 1;
#X obj 541 274 env~;
#X obj 583 243 hsl 128 15 0 1 0 0 empty empty Volume -2 -8 1 10 #fcfcfc
#000000 #000000 0 1;
#X obj 432 451 sigmund~ -npeak 1 tracks notes;
#X floatatom 639 499 5 0 0 0 - - - 0;
#X obj 824 141 unpack f f f;
#X obj 824 189 lop~;
#X obj 824 213 osc~;
#X obj 824 237 *~;
#X obj 824 261 *~;
#X obj 861 189 hsl 128 15 0.2 300 0 0 empty empty Portamento -2 -8
0 10 #fcfcfc #000000 #000000 0 1;
#X obj 900 219 hsl 128 15 0 50 0 0 empty empty Gain -2 -8 1 10 #fcfcfc
#000000 #000000 0 1;
#X obj 858 235 *~;
#X obj 858 256 lop~;
#X floatatom 897 266 5 0 0 0 - - - 0;
#X obj 897 288 vsl 15 128 0 2 0 0 empty empty empty 0 -9 0 10 #fcfcfc
#000000 #000000 0 1;
#X floatatom 936 266 5 0 0 0 - - - 0;
#X obj 936 288 vsl 15 128 0 200 0 0 empty empty empty 0 -9 0 10 #fcfcfc
#000000 #000000 0 1;
#X obj 858 280 env~;
#X obj 900 249 hsl 128 15 0 1 0 0 empty empty Volume -2 -8 1 10 #fcfcfc
#000000 #000000 0 1;
#X obj 718 532 mtof~;
#X obj 890 476 outlet;
#X obj 1061 447 outlet;
#X connect 1 0 2 0;
#X connect 1 0 19 0;
#X connect 1 0 38 0;
#X connect 2 0 3 0;
#X connect 2 1 10 0;
#X connect 2 1 13 0;
#X connect 3 0 4 0;
#X connect 4 0 5 0;
#X connect 5 0 6 0;
#X connect 6 0 7 0;
#X connect 7 0 36 0;
#X connect 8 0 4 1;
#X connect 8 0 11 1;
#X connect 9 0 10 1;
#X connect 10 0 11 0;
#X connect 11 0 17 0;
#X connect 11 0 6 1;
#X connect 13 0 14 0;
#X connect 15 0 16 0;
#X connect 17 0 15 0;
#X connect 18 0 7 1;
#X connect 19 0 20 0;
#X connect 19 1 27 0;
#X connect 19 1 30 0;
#X connect 20 0 21 0;
#X connect 21 0 22 0;
#X connect 22 0 23 0;
#X connect 23 0 24 0;
#X connect 24 0 36 0;
#X connect 25 0 21 1;
#X connect 25 0 28 1;
#X connect 26 0 27 1;
#X connect 27 0 28 0;
#X connect 28 0 34 0;
#X connect 28 0 23 1;
#X connect 30 0 31 0;
#X connect 32 0 33 0;
#X connect 34 0 32 0;
#X connect 35 0 24 1;
#X connect 36 1 37 0;
#X connect 37 0 53 0;
#X connect 37 0 54 0;
#X connect 38 1 45 0;
#X connect 38 1 47 0;
#X connect 39 0 40 0;
#X connect 40 0 41 0;
#X connect 41 0 42 0;
#X connect 42 0 0 0;
#X connect 43 0 39 1;
#X connect 43 0 46 1;
#X connect 44 0 45 1;
#X connect 45 0 46 0;
#X connect 46 0 51 0;
#X connect 46 0 41 1;
#X connect 47 0 48 0;
#X connect 49 0 50 0;
#X connect 49 0 55 0;
#X connect 51 0 49 0;
#X connect 52 0 42 1;
#X connect 53 0 39 0;
#X restore 481 338 pd basic_sine;
#N canvas 700 337 450 363 midi_out 1;
#X obj 86 31 inlet;
#X floatatom 86 55 7 0 0 0 - - - 0;
#X obj 86 78 i;
#X floatatom 86 102 5 0 0 0 - - - 0;
#X obj 86 122 -;
#X floatatom 86 146 6 0 0 0 - - - 0;
#X obj 105 251 pack f f f;
#X obj 184 35 inlet;
#X floatatom 184 59 5 0 0 0 - - - 0;
#X obj 184 82 - 20;
#X obj 184 106 i;
#X obj 394 187 + 1;
#X obj 259 175 hradio 10 1 0 16 empty empty Channel 0 -8 1 10 #fcfcfc
#000000 #000000 0;
#X obj 105 275 noteout;
#X obj 256 289 bendout;
#X obj 342 294 pack f f f;
#X obj 342 318 ctlout;
#X obj 248 265 * 0;
#X connect 0 0 1 0;
#X connect 1 0 2 0;
#X connect 1 0 4 0;
#X connect 2 0 3 0;
#X connect 3 0 4 1;
#X connect 3 0 6 0;
#X connect 4 0 5 0;
#X connect 5 0 17 0;
#X connect 6 0 13 0;
#X connect 7 0 8 0;
#X connect 8 0 9 0;
#X connect 9 0 10 0;
#X connect 10 0 6 1;
#X connect 11 0 6 2;
#X connect 11 0 14 1;
#X connect 11 0 15 2;
#X connect 12 0 11 0;
#X connect 15 0 16 0;
#X connect 17 0 14 0;
#X restore 519 408 pd midi_out;
#X connect 0 0 4 0;
#X connect 1 2 12 0;
#X connect 3 0 7 0;
#X connect 3 0 9 0;
#X connect 4 0 3 0;
#X connect 5 0 4 1;
#X connect 5 0 6 0;
#X connect 7 0 1 0;
#X connect 9 0 2 0;
#X connect 9 0 2 1;
#X connect 10 0 9 1;
#X connect 11 0 3 1;
#X connect 12 0 9 0;
#X connect 12 1 13 0;
#X connect 12 2 13 1;
