#N canvas 508 326 450 300 12;
#X obj 38 103 doctor_note_test 10;
#X obj 281 103 f \$1;
#X obj 281 81 loadbang;
#X obj 142 81 r SEND_ALL_CHANNELS;
#X text 35 45 Creation Arguments:;
#X text 33 82 \$1 -- channel #;
#X text 228 103 Channel;
#X text 34 63 (\$0 -- unique local variable);
#X obj 38 127 general_cc 11 10 Volume;
#X obj 38 168 general_cc 91 10 Reverb_Send;
#N canvas 481 404 450 300 drum-matrix 1;
#X obj 85 8 r 10-note;
#X obj 154 8 r 10-velocity;
#X floatatom 115 29 5 0 0 0 - - - 0;
#X floatatom 184 29 5 0 0 0 - - - 0;
#X floatatom 277 61 5 0 0 0 - - - 0;
#X floatatom 277 102 5 0 0 0 - - - 0;
#X obj 277 81 expr $f1%88;
#X obj 277 122 moses 52;
#X floatatom 277 143 5 0 0 0 - - - 0;
#X floatatom 330 143 5 0 0 0 - - - 0;
#X obj 277 163 moses 28;
#X floatatom 330 184 5 0 0 0 - - - 0;
#X floatatom 277 184 5 0 0 0 - - - 0;
#X floatatom 330 225 5 0 0 0 - - - 0;
#X obj 330 204 + 24;
#X connect 0 0 2 0;
#X connect 1 0 3 0;
#X connect 4 0 6 0;
#X connect 5 0 7 0;
#X connect 6 0 5 0;
#X connect 7 0 8 0;
#X connect 7 1 9 0;
#X connect 8 0 10 0;
#X connect 10 0 12 0;
#X connect 10 1 11 0;
#X connect 11 0 14 0;
#X connect 14 0 13 0;
#X restore 38 209 pd drum-matrix;
#X connect 2 0 1 0;
#X connect 3 0 1 0;
