#N canvas 179 204 189 195 12;
#X obj 57 102 output~;
#X obj 57 60 osc~;
#X obj 57 81 *~;
#X obj 57 39 mtof;
#X obj 57 18 inlet;
#X obj 16 40 inlet;
#X obj 84 81 *~ 0.001;
#X obj 91 40 inlet;
#X floatatom 91 61 5 0 0 0 - - - 0;
#X obj 2 102 outlet~;
#X connect 1 0 2 0;
#X connect 2 0 0 0;
#X connect 2 0 0 1;
#X connect 2 0 9 0;
#X connect 3 0 1 0;
#X connect 4 0 3 0;
#X connect 5 0 1 0;
#X connect 6 0 2 1;
#X connect 7 0 8 0;
#X connect 8 0 6 0;
